<svg xmlns:xlink="http://www.w3.org/1999/xlink" style="display: none;"><symbol viewBox="0 0 18 4" id="dots"><path d="M2 0c1.1 0 2 .9 2 2s-.9 2-2 2-2-.9-2-2 .9-2 2-2zm7 0c1.1 0 2 .9 2 2s-.9 2-2 2-2-.9-2-2 .9-2 2-2zm9 2c0-1.1-.9-2-2-2s-2 .9-2 2 .9 2 2 2 2-.9 2-2z"/></symbol><symbol viewBox="0 0 31 18" id="logo"><path d="M14.9 3.4H9.6V18H5.3V3.4H0V0h14.9v3.4zm16.1 0h-5.4V18h-4.3V3.4H16V0h15v3.4z"/></symbol><symbol viewBox="0 0 9 12" id="pause"><path d="M1.6 0C.7 0 0 .7 0 1.6v8.8c0 .9.7 1.6 1.6 1.6.9 0 1.6-.7 1.6-1.6V1.6C3.3.7 2.5 0 1.6 0zm5.8 0c-.9 0-1.7.7-1.7 1.6v8.8c0 .9.7 1.6 1.6 1.6S9 11.3 9 10.4V1.6C9 .7 8.3 0 7.4 0z"/></symbol><symbol viewBox="0 0 16 16" id="phone"><path d="M9.2 9.2c-1.6 1.6-3.4 3.1-4.1 2.4-1-1-1.7-1.9-4-.1-2.3 1.8-.5 3.1.5 4.1 1.2 1.2 5.5.1 9.8-4.2 4.3-4.3 5.4-8.6 4.2-9.8-1-1-2.2-2.8-4.1-.5-1.8 2.3-.9 2.9.1 4 .7.7-.8 2.5-2.4 4.1z"/></symbol></svg>