<svg xmlns:xlink="http://www.w3.org/1999/xlink" style="display: none;"><symbol viewBox="0 0 18 4" id="dots"><path d="M2 0c1.1 0 2 .9 2 2s-.9 2-2 2-2-.9-2-2 .9-2 2-2zm7 0c1.1 0 2 .9 2 2s-.9 2-2 2-2-.9-2-2 .9-2 2-2zm9 2c0-1.1-.9-2-2-2s-2 .9-2 2 .9 2 2 2 2-.9 2-2z"/></symbol><symbol viewBox="0 0 4 18" id="dots-vertical"><path d="M0 16c0-1.1.9-2 2-2s2 .9 2 2-.9 2-2 2-2-.9-2-2zm0-7c0-1.1.9-2 2-2s2 .9 2 2-.9 2-2 2-2-.9-2-2zm2-9C.9 0 0 .9 0 2s.9 2 2 2 2-.9 2-2-.9-2-2-2z"/></symbol><symbol viewBox="0 0 3 16" id="exclamation"><path d="M2.6 10.5H.3L.1 0h2.7l-.2 10.5zM0 14.7c0-.4.1-.7.4-1 .3-.3.6-.4 1.1-.4s.9.1 1.1.4c.3.3.4.6.4 1s-.1.7-.4 1c-.2.2-.6.3-1.1.3s-.9-.1-1.1-.4c-.3-.2-.4-.6-.4-.9z"/></symbol><symbol viewBox="0 0 6 16" id="handset"><path d="M3.4 8c0 1.8-.2 3.7-1 3.7-1.2 0-2.2-.2-2.4 2.2-.3 2.3 1.4 2 2.7 2C4 16.1 6 13 6 8S4 0 2.7 0C1.6 0-.2-.3 0 2.1c.3 2.3 1.1 2.2 2.4 2.2.9 0 1 1.9 1 3.7z"/></symbol><symbol viewBox="0 0 31 18" id="logo"><path d="M14.9 3.4H9.6V18H5.3V3.4H0V0h14.9v3.4zm16.1 0h-5.4V18h-4.3V3.4H16V0h15v3.4z"/></symbol><symbol viewBox="0 0 260 238" id="map"><style/><g class="fmap-group"><path class="fregion" d="M132 166.089l3.2 3.9h-3.9l.6 3.2-1.3 1.3v3.2l-2.6 2.6-3.2 1.3-2.6 5.2 3.2 4.5.6 1.9-3.9 1.9-1.1 6.4 1.3 2.6 5.2.6 2.5 3.3 3.2 3.9 3.2 2.6v-3.9l-3.2-6.4v-7.2l1.3-5.2v-5.2l4.5 1.3 1.9-3.9.6-3.9-1.3-2.6h-1.3l-.6-1.3 3.2-3.9h2.6l4.5 3.9 5.2-3.2v-1.9l5.2-7.1 1.3-3.2-3.9 1.9-5.8.6-3.9-.6 11-14.2v-1.8H152l-7.8-7.7-1.3 3.2 3.2 2.6-1.3 1.3h-1.9l-2.5 1.9-3.9.6-5.8-2.5v11l-3.2 5.8v3.9l4.5-.7z"/><path class="fregion-stroke" d="M135.2 169.989v.5h1.1l-.7-.8-.4.3zm-3.2-3.9l.4-.3-.2-.2h-.3l.1.5zm-4.5.6h-.5v.6l.6-.1-.1-.5zm0-3.8l-.5-.3v.2h.5zm3.2-5.8l.4.2.1-.1v-.1h-.5zm0-11l.2-.5-.7-.3v.8h.5zm5.8 2.6l-.2.5.1.1h.1v-.6zm3.8-.7l.1.5h.1l.1-.1-.3-.4zm2.6-1.9v-.5h-.2l-.1.1.3.4zm2 0v.5h.2l.1-.1-.3-.4zm1.3-1.3l.4.4.4-.4-.4-.3c-.1-.1-.4.3-.4.3zm-3.3-2.6l-.4-.2-.1.3.3.2.2-.3zm1.3-3.2l.4-.4-.6-.5-.3.7.5.2zm7.8 7.7l-.4.4.1.1h.3v-.5zm5.8 0h.5v-.5h-.5v.5zm0 2l.4.3.1-.1v-.2h-.5zm-11 14.2l-.4-.3-.5.7.8.1.1-.5zm3.9.6l-.1.5h.2l-.1-.5zm5.8-.6l.1.5h.2l-.3-.5zm3.8-2l.5.2.5-1.2-1.2.6.2.4zm-1.2 3.2l.4.3v-.2c0 .1-.4-.1-.4-.1zm-5.2 7.1l-.4-.3-.1.1v.2h.5zm0 2l.3.4.2-.1v-.3h-.5zm-5.2 3.2l-.3.4.3.2.3-.2-.3-.4zm-4.5-3.9l.3-.4-.1-.1h-.2v.5zm-2.6 0v-.5h-.2l-.1.2.3.3zm-3.2 3.9l-.4-.3-.2.3.1.3.5-.3zm.7 1.3l-.4.2.1.3h.3v-.5zm1.2 0l.4-.2-.1-.3h-.3v.5zm1.3 2.6l.5.1v-.4l-.5.3zm-.6 3.8l.4.2v-.2c.1.1-.4 0-.4 0zm-1.9 3.9l-.1.5.4.1.2-.4c-.1 0-.5-.2-.5-.2zm-4.6-1.3l.1-.5-.6-.1v.7h.5zm0 5.2l.5.1v-.2h-.5zm-1.2 5.1l-.5-.1v.1h.5zm0 7.1h-.5v.1l.1.1.4-.2zm3.2 6.5h.5v-.1l-.1-.1-.4.2zm0 3.8l-.3.4.8.6v-1h-.5zm-3.2-2.5l-.4.3.4-.3zm-3.3-3.9l-.4.3.4-.3zm-2.6-3.2l.4-.3-.1-.2h-.2l-.1.5zm-5.1-.7l-.4.2.1.3h.3v-.5zm-1.3-2.6l-.5-.1v.2l.1.2.4-.3zm1.3-6.4l-.2-.4-.2.1v.2l.4.1zm3.9-1.9l.2.4.4-.2-.2-.4-.4.2zm-.7-2l.5-.1v-.2l-.5.3zm-3.2-4.5l-.4-.2-.1.3.1.2.4-.3zm2.6-5.1l-.2-.5-.2.1-.1.2c0-.1.5.2.5.2zm3.2-1.3l.2.5h.1l.1-.1-.4-.4zm2.6-2.6l.3.3.1-.1v-.2h-.4zm0-3.2l-.4-.4-.1.1v.2h.5zm1.3-1.3l.4.4.2-.2-.1-.3-.5.1zm-.7-3.2v-.5h-.6l.1.5h.5zm4.3-.4l-3.2-3.9-.8.6 3.2 3.9c0 .1.8-.6.8-.6zm-3.7-4l-4.5.6.1 1 4.5-.6-.1-1zm-4 1.1v-3.9h-1v3.9h1zm0-3.6l3.2-5.8-.9-.5-3.2 5.8.9.5zm3.3-6v-11h-1v11h1zm-.7-10.6l5.8 2.6.4-.9-5.8-2.6-.4.9zm6.1 2.7l3.9-.6-.2-1-3.9.6.2 1zm4-.8l2.6-1.9-.6-.8-2.6 1.9.6.8zm2.3-1.8h1.9v-1h-1.9v1zm2.3-.2l1.3-1.3-.7-.7-1.3 1.3.7.7zm1.3-2l-3.2-2.6-.6.8 3.2 2.6.6-.8zm-3.1-2l1.3-3.2-.9-.4-1.3 3.2.9.4zm.5-3l7.7 7.7.7-.7-7.7-7.7-.7.7zm8.1 7.8h5.8v-1H152v1zm5.3-.5v1.9h1v-1.9h-1zm.1 1.7l-11 14.2.8.6 11-14.2-.8-.6zm-10.7 15l3.9.6.2-1-3.9-.6-.2 1zm4 .6l5.8-.6-.1-1-5.8.6.1 1zm6-.7l3.9-1.9-.4-.9-3.9 1.9.4.9zm3.2-2.6l-1.3 3.3.9.4 1.3-3.2c0-.1-.9-.5-.9-.5zm-1.2 3.2l-5.2 7.1.8.6 5.2-7.1c0-.1-.8-.6-.8-.6zm-5.3 7.3v1.9h1v-1.9h-1zm.2 1.6l-5.1 3.2.5.8 5.2-3.2-.6-.8zm-4.5 3.2l-4.5-3.9-.7.8 4.5 3.9.7-.8zm-4.9-4h-2.6v1h2.6v-1zm-2.9.2l-3.3 3.9.8.6 3.2-3.9-.7-.6zm-3.3 4.4l.6 1.3.9-.4-.6-1.3-.9.4zm1.1 1.6h1.3v-1h-1.3v1zm.8-.3l1.3 2.6.9-.4-1.3-2.6-.9.4zm1.2 2.3l-.6 3.9 1 .2.6-3.9c0-.1-1-.2-1-.2zm-.6 3.7l-1.9 3.9.9.4 1.9-3.9-.9-.4zm-1.3 3.6l-4.5-1.3-.3 1 4.5 1.3.3-1zm-5.2-.8v5.2h1v-5.2h-1zm.1 5.1l-1.3 5.2 1 .2 1.2-5.2-.9-.2zm-1.3 5.2v7.1h1v-7.1h-1zm0 7.3l3.2 6.4.9-.4-3.2-6.4-.9.4zm3.2 6.3v3.9h1v-3.9h-1zm.8 3.5l-3.2-2.6-.6.8 3.2 2.6.6-.8zm-3.2-2.6l-3.2-3.9-.8.6 3.2 3.9.8-.6zm-3.2-3.8l-2.6-3.2-.8.6 2.6 3.2.8-.6zm-2.9-3.4l-5.2-.6-.1 1 5.2.6.1-1zm-4.8-.4l-1.3-2.6-.9.4 1.3 2.6.9-.4zm-1.2-2.3l1.3-6.4-1-.2-1.3 6.4 1 .2zm1-6.1l3.9-1.9-.4-.9-3.9 1.9c0 .1.4.9.4.9zm4.1-2.5l-.6-1.9-1 .3.6 1.9 1-.3zm-.7-2.1l-3.2-4.5-.8.6 3.2 4.5.8-.6zm-3.2-4l2.6-5.2-.9-.4-2.6 5.2.9.4zm2.4-4.9l3.2-1.3-.4-.9-3.2 1.3.4.9zm3.3-1.4l2.6-2.6-.7-.7-2.6 2.6.7.7zm2.8-2.9v-3.2h-1v3.2h1zm-.2-2.9l1.3-1.3-.7-.7-1.3 1.3.7.7zm1.5-1.7l-.6-3.2-1 .2.6 3.2 1-.2zm-1.2-2.6h3.9v-1h-3.9v1z"/></g><g class="fmap-group"><path class="fregion" d="M72.6 102.201l-.6 3.9-1.4-2.6-1.3-1.3-2.6-2.6-2.6-.6-2.5-.6-1.3-1.9-.6-1.9-1.3-1.3-2.6 1.3-.6 3.2-1.3 1.9-1.3-.7v-5.8l-1.3-3.9-2-2.5-1.2-2h-4.6l-1.9-1.9.6-1.3h1.9l5.8 1.9 4.5 1.9h7.7l.6 1.3.6 4.5 9.7 6.4 1.3 1.9c.2.2-1.7 2.7-1.7 2.7z"/><path class="fregion-stroke" d="M71.9 106.101l-.4.2.7 1.4.3-1.5c-.1 0-.6-.1-.6-.1zm.7-3.9l-.4-.3-.1.1v.1l.5.1zm1.9-2.5l.4.3.2-.3-.2-.3-.4.3zm-1.3-2l.4-.3-.1-.1-.3.4zm-9.7-6.4l-.5.1v.2l.2.1.3-.4zm-.6-4.5l.5-.1v-.2l-.5.3zm-.7-1.3l.4-.2-.1-.3h-.3v.5zm-7.7 0l-.2.5h.2v-.5zm-4.5-2l.2-.5-.2.5zm-5.8-1.9l.2-.5h-.2v.5zm-2 0v-.5h-.3l-.1.3.4.2zm-.6 1.3l-.4-.2-.2.3.3.3.3-.4zm1.9 1.9l-.3.4.1.1h.2v-.5zm4.6 0l.4-.3-.2-.2h-.2v.5zm1.2 2l-.4.2.4-.2zm2 2.5l.5-.2v-.2c-.1.1-.5.4-.5.4zm1.3 3.9h.5v-.2c-.1 0-.5.2-.5.2zm0 5.8h-.5v.3l.3.1.2-.4zm1.3.7l-.3.4.4.2.2-.4c.1 0-.3-.2-.3-.2zm1.2-2l.4.3.1-.1v-.1l-.5-.1zm.7-3.2l-.2-.5-.2.1v.2l.4.2zm2.6-1.3l.4-.4-.3-.2-.3.2c-.1 0 .2.4.2.4zm1.3 1.3l.5-.2v-.1l-.1-.1c-.1 0-.4.4-.4.4zm.6 1.9l-.5.2v.2c.1-.1.5-.4.5-.4zm1.3 2l-.4.2.1.2h.2l.1-.4zm2.6.6l.1-.5-.1.5zm2.6.7l.4-.4-.1-.1H67l-.2.5zm2.5 2.5l.4-.4-.4.4zm1.3 1.3l.4-.2v-.1l-.1-.1-.3.4zm1.8 2.7l.6-3.9-1-.2-.6 3.9 1 .2zm.6-3.7l1.9-2.6-.8-.6-1.9 2.6.8.6zm1.9-3.1l-1.3-2-.8.6 1.3 1.9.8-.5zm-1.4-2.1l-9.7-6.4-.6.8 9.7 6.4.6-.8zm-9.5-6.1l-.6-4.5-1 .1.6 4.5 1-.1zm-.7-4.7l-.6-1.3-.9.4.6 1.3.9-.4zm-1.1-1.5H59v1h3.2v-1zm-3.2 0h-4.5v1H59v-1zm-4.3 0l-4.5-1.9-.4.9 4.5 1.9.4-.9zm-4.6-1.9l-5.8-2-.3 1 5.8 1.9.3-.9zm-5.9-2h-2v1h1.9v-1zm-2.4.3l-.6 1.3.9.4.6-1.3-.9-.4zm-.6 1.8l1.9 1.9.7-.7-1.8-1.9-.8.7zm2.3 2.1H48v-1h-4.5v1zm4.1-.2l1.3 1.9.8-.6-1.2-1.9-.9.6zm1.3 2l2 2.5.8-.6-2-2.5-.8.6zm1.9 2.4l1.3 3.9.9-.3-1.3-3.9-.9.3zm1.3 3.7v3.9h1v-3.9h-1zm0 3.9v1.9h1v-1.9h-1zm.2 2.4l1.3.6.4-.9-1.2-.6-.5.9zm2 .4l1.3-1.9-.8-.6-1.3 1.9.8.6zm1.3-2.1l.6-3.2-1-.2-.5 3.2.9.2zm.4-2.9l2.6-1.3-.4-.9-2.6 1.3.4.9zm2-1.3l1.3 1.3.7-.7-1.3-1.3-.7.7zm1.2 1.1l.6 1.9.9-.3-.6-1.9c0-.1-.9.3-.9.3zm.7 2l1.3 1.9.8-.6-1.3-1.9c0 .1-.8.6-.8.6zm1.6 2.2l2.6.6.2-1-2.6-.6-.2 1zm2.6.6l2.6.6.2-1-2.6-.6-.2 1zm2.3.5l2.6 2.6.7-.7-2.6-2.6-.7.7zm2.6 2.6l1.3 1.3.7-.7-1.3-1.3-.7.7zm1.2 1.1l1.3 2.6.9-.4-1.3-2.6-.9.4z"/></g><g class="fmap-group"><path class="fregion" d="M151.9 146.738l-7.7-7.7.6-2.6h5.2l3.2-4.5-1.9-3.3.6-1.9h11l-1.9 5.2 1.3.6 6.5-.6.6 3.2v5.2l-.6 1.3-.6 11.6-7.7 7.7-3.9 1.9-5.8.6-3.9-.6 11-14.2v-1.9h-6z"/><path class="fregion-stroke" d="M144.2 139.038l-.5-.1-.1.3.2.2.4-.4zm7.7 7.7l-.4.4.1.1h.2v-.5zm5.8 0h.5v-.5h-.5v.5zm0 1.9l.4.3.1-.1v-.2h-.5zm-10.9 14.2l-.4-.3-.5.7.8.1.1-.5zm3.8.7l-.1.5h.2l-.1-.5zm5.9-.7l.1.5h.2c-.1 0-.3-.5-.3-.5zm3.8-1.9l.2.4h.1l.1-.1-.4-.3zm7.8-7.8l.4.4.1-.1v-.2l-.5-.1zm.6-11.6l-.4-.2v.2h.4zm.7-1.3l.4.2.1-.1v-.1h-.5zm0-5.1h.5-.5zm-.7-3.2l.5-.1-.1-.4h-.5l.1.5zm-6.4.6l-.2.4.1.1h.1v-.5zm-1.3-.6l-.5-.2-.2.4.4.2.3-.4zm1.9-5.2l.5.2.3-.7h-.7v.5zm-11 0v-.5h-.3l-.1.3.4.2zm-.6 1.9l-.5-.1-.1.2.1.2.5-.3zm1.9 3.3l.4.3.2-.3-.1-.3-.5.3zm-3.2 4.5v.5h.3l.1-.2-.4-.3zm-5.2 0v-.5h-.3l-.1.4.4.1zm-1 2.9l7.7 7.7.7-.7-7.7-7.7c.1 0-.7.7-.7.7zm8.1 7.9h5.8v-1h-5.8v1zm5.3-.5v1.9h1v-1.9h-1zm.1 1.6l-11 14.2.9.6 11-14.2c-.1 0-.9-.6-.9-.6zm-10.6 15l3.9.6.2-1-3.9-.6-.2 1zm4 .7l5.8-.6-.1-1-5.8.6.1 1zm6-.7l3.9-1.9-.4-.9-4 1.9.5.9zm4-2.1l7.7-7.7-.7-.7-7.7 7.7.7.7zm7.9-8l.6-11.6-1-.1-.6 11.6 1 .1zm.6-11.4l.6-1.3-.9-.4-.6 1.3.9.4zm.7-1.6v-5.1h-1v5.2c0-.1 1-.1 1-.1zm-.1-5.2l-.6-3.2-1 .2.6 3.2 1-.2zm-1.1-3.6l-6.5.6.1 1 6.5-.6-.1-1zm-6.2.7l-1.3-.7-.4.9 1.3.6c-.1.1.4-.8.4-.8zm-1.1-.1l1.9-5.2-.9-.4-1.9 5.3.9.3zm1.5-5.8h-11v1h11v-1zm-11.4.3l-.7 2 .9.3.6-1.9c.1 0-.8-.4-.8-.4zm-.6 2.4l1.9 3.2.9-.5-2-3.2-.8.5zm1.9 2.7l-3.2 4.5.8.6 3.2-4.5c0-.1-.8-.6-.8-.6zm-2.8 4.3h-5.2v1h5.2v-1zm-5.6.4l-.6 2.6 1 .2.6-2.6-1-.2z"/></g><g class="fmap-group"><path class="fregion" d="M153.9 173.172v-1.9l5.2-7.1 1.3-3.2 7.7-7.7.6-11.6.6-1.3v-5.9h4.6v-4.5l3.2-1.3 6.4 27.1 1.9 8.4-1.3.6-9.7 4.5v11l2.6 1.9-.5 4.5-3.9 5.8-3.2-.6-7.1-4.5v-5.2l4.5-5.8.6-2.6-1.3-.6-2.6 1.9h-3.8l-5.8-1.9z"/><path class="fregion-stroke" d="M153.9 171.272l-.4-.3-.1.1v.2h.5zm0 1.9h-.5v.4l.3.1.2-.5zm5.8 1.9l-.2.5h.2v-.5zm3.9 0v.5h.2l.1-.1-.3-.4zm2.6-1.9l.2-.4-.3-.1-.2.1.3.4zm1.2.6l.5.1.1-.4-.4-.2c.1.1-.2.5-.2.5zm-.6 2.6l.4.3.1-.1v-.1l-.5-.1zm-4.5 5.8l-.4-.3-.1.1v.2h.5zm0 5.2h-.5v.3l.2.1.3-.4zm7.1 4.5l-.3.4.1.1h.1l.1-.5zm3.2.6l-.1.5.3.1.2-.3-.4-.3zm3.9-5.8l.4.3.1-.1v-.1l-.5-.1zm.6-4.5l.5.1v-.3l-.2-.2-.3.4zm-2.6-1.9h-.5v.3l.2.2.3-.5zm0-11l-.2-.5-.3.1v.3c0 .1.5.1.5.1zm9.7-4.5l.2.5-.2-.5zm1.3-.6l.2.4.4-.2-.1-.4c0 .1-.5.2-.5.2zm-1.9-8.4l.5-.1-.5.1zm-6.5-27.1l.5-.1-.1-.6-.6.2.2.5zm-3.2 1.3l-.2-.5-.3.2v.3h.5zm0 4.5v.5h.5v-.5h-.5zm-4.5 0v-.5h-.5v.5h.5zm0 5.8l.4.2.1-.1v-.1h-.5zm-.7 1.3l-.4-.2v.2h.4zm-.6 11.6l.4.4.1-.1v-.2c0-.1-.5-.1-.5-.1zm-7.8 7.7l-.4-.4v.3l.4.1zm-1.2 3.3l.4.3v-.2c0 .1-.4-.1-.4-.1zm-5.7 7.1v1.9h1v-1.9h-1zm.3 2.4l5.8 1.9.4-.9-5.8-2-.4 1zm6 1.9h3.9v-1h-3.9v1zm4.2-.1l2.6-1.9-.6-.8-2.6 1.9.6.8zm2-1.9l1.3.6.4-.9-1.2-.6-.5.9zm1.1.1l-.6 2.6 1 .2.6-2.6-1-.2zm-.6 2.4l-4.5 5.8.8.6 4.5-5.8-.8-.6zm-4.6 6.1v5.2h1v-5.2h-1zm.2 5.6l7.1 4.5.5-.8-7.1-4.5-.5.8zm7.3 4.6l3.2.6.2-1-3.2-.6-.2 1zm3.7.4l3.9-5.8-.8-.6-3.9 5.8c0 .1.8.6.8.6zm4-6l.6-4.5-1-.1-.6 4.5 1 .1zm.4-5l-2.6-1.9-.6.8 2.6 1.9.6-.8zm-2.4-1.5v-11h-1v11h1zm-.2-10.5l9.7-4.5-.4-.9-9.7 4.5c-.1 0 .4.9.4.9zm9.6-4.5l1.3-.6-.4-1-1.3.6c0 .1.4 1 .4 1zm1.6-1.2l-1.9-8.4-1 .2 1.9 8.4 1-.2zm-1.9-8.4l-6.5-27.1-1 .2 6.4 27.1c.1 0 1.1-.2 1.1-.2zm-7.2-27.5l-3.2 1.3.4.9 3.2-1.3-.4-.9zm-3.5 1.8v4.5h1v-4.5h-1zm.5 4h-4.5v1h4.5v-1zm-5 .5v5.8h1v-5.8h-1zm0 5.6l-.6 1.3.9.4.6-1.3-.9-.4zm-.7 1.5l-.6 11.6 1 .1.6-11.6-1-.1zm-.5 11.2l-7.7 7.7.7.7 7.7-7.7c0 .1-.7-.7-.7-.7zm-7.8 8l-1.3 3.2.9.4 1.3-3.2-.9-.4zm-1.2 3.1l-5.2 7.1.8.6 5.2-7.1-.8-.6z"/></g><g class="fmap-group"><path class="fregion" d="M71.9 148.045l3.9-.6v-6.4l3.2-3.9 3.2-4.5-10.3-5.9-3.9-4.5-18-1.3-2.6-1.3-3.2 3.2 1.9 1.3v3.9l5.2 1.9 5.8 1.3 1.9 2.6v3.2h-1.9v2.6l1.3 3.9 1.9 2.6H70c0-.1 1.9 1.9 1.9 1.9z"/><path class="fregion-stroke" d="M75.8 147.345l.1.5.4-.1v-.4h-.5zm-3.9.7l-.4.4.2.2h.3l-.1-.6zm-1.9-2l.4-.4-.2-.1H70v.5zm-9.7 0l-.4.3.2.2h.2v-.5zm-1.9-2.5l-.5.1v.2c.1 0 .5-.3.5-.3zm-1.3-3.9h-.5v.2l.5-.2zm0-2.6v-.5h-.5v.5h.5zm1.9 0v.5h.5v-.5H59zm0-3.2h.5v-.2l-.1-.1-.4.3zm-1.9-2.6l.4-.3-.1-.1h-.2c0-.1-.1.4-.1.4zm-5.8-1.3l-.2.5c.1 0 .2-.5.2-.5zm-5.2-1.9h-.5v.3l.3.1.2-.4zm0-3.9h.5v-.3l-.2-.1-.3.4zm-1.9-1.3l-.4-.4-.4.4.5.3.3-.3zm3.2-3.2l.2-.4-.3-.2-.2.2.3.4zm2.6 1.3l-.2.4h.2v-.4zm18.1 1.3l.4-.3-.1-.2h-.2l-.1.5zm3.8 4.5l-.4.3.1.1h.1l.2-.4zm10.4 5.8l.4.3.3-.5-.5-.3c0 .1-.2.5-.2.5zm-3.3 4.5l.4.3-.4-.3zm-3.2 3.9l-.4-.3-.1.1v.2h.5zm-.1 5.9l-3.9.6.2 1 3.9-.6-.2-1zm-3.4.8l-1.9-1.9-.7.7 1.9 1.9.7-.7zm-2.3-2.1h-3.9v1H70v-1zm-3.9 0h-5.8v1h5.8v-1zm-5.4.2l-1.9-2.6-.8.6 1.9 2.6.8-.6zm-1.8-2.4l-1.3-3.9-.9.3 1.3 3.9.9-.3zm-1.3-3.7v-2.6h-1v2.6h1zm-.5-2.1H59v-1h-1.9v1zm2.4-.5v-3.2h-1v3.2h1zm-.1-3.5l-1.9-2.6-.8.6 1.9 2.6.8-.6zm-2.2-2.8l-5.8-1.3-.2 1 5.8 1.3.2-1zm-5.7-1.3l-5.2-1.9-.3 1 5.2 1.9c-.1 0 .3-1 .3-1zm-4.9-1.4v-3.9h-1v3.9h1zm-.2-4.3l-1.9-1.3-.6.8 1.9 1.3c.1 0 .6-.8.6-.8zm-1.8-.5l3.2-3.2-.7-.8-3.2 3.2.7.8zm2.6-3.2l2.6 1.3.4-.9-2.6-1.2-.4.8zm2.8 1.4l18.1 1.3.1-1-18.2-1.3v1zm17.7 1.1l3.9 4.5.8-.7-3.9-4.5c-.1.1-.8.7-.8.7zm4 4.6l10.3 5.8.5-.9-10.3-5.7-.5.8zm10.1 5.1l-3.2 4.5.8.6 3.2-4.5c.1 0-.8-.6-.8-.6zm-3.2 4.5l-3.2 3.9.8.6 3.2-3.9-.8-.6zm-3.3 4.2v6.4h1v-6.4h-1z"/></g><g class="fmap-group"><path class="fregion" d="M75.8 140.941v6.4l7.1 1.3 7.1 2.6h3.9l7.1 4.5v5.8l.6 1.9 11-4.5h2.6l1.9-.6h2.6v7.1l5.2 1.3h2.6v-3.9l3.2-5.8v-11l-9 3.2h-4.5l-.6-2.6-3.9.6-8.4-8.4h-6.4l-5.2-1.9-4.5-3.9-6-.5-6.4 8.4z"/><path class="fregion-stroke" d="M75.8 147.341h-.5v.4l.4.1.1-.5zm0-6.4l-.4-.3-.1.1v.2h.5zm6.4-8.4l.1-.5H82l-.1.2.3.3zm5.9.6l.3-.4-.1-.1h-.2v.5zm4.5 3.9l-.3.4v.1h.1l.2-.5zm5.1 1.9l-.2.5h.2v-.5zm6.5 0l.4-.4-.1-.1h-.2c-.1 0-.1.5-.1.5zm8.4 8.4l-.4.4.2.2h.3c-.1-.1-.1-.6-.1-.6zm3.8-.6l.5-.1-.1-.5-.5.1c.1 0 .1.5.1.5zm.7 2.6l-.5.1.1.4h.4v-.5zm4.5 0v.5h.2c0-.1-.2-.5-.2-.5zm9-3.3h.5v-.7l-.7.2c.1.1.2.5.2.5zm0 11l.4.2.1-.1v-.1h-.5zm-3.2 5.8l-.4-.2-.1.1v.1h.5zm0 3.9v.5h.5v-.5h-.5zm-2.6 0l-.1.5h.1v-.5zm-5.1-1.3h-.5v.4l.4.1.1-.5zm0-7.1h.5v-.5h-.5v.5zm-2.6 0v-.5h-.2l.2.5zm-2 .6v.5h.2l-.2-.5zm-2.5 0v-.5h-.2l.2.5zm-11 4.6l-.5.2.2.5.5-.2c0-.1-.2-.5-.2-.5zm-.6-2h-.5v.2l.5-.2zm0-5.8h.5v-.3l-.2-.1-.3.4zm-7.1-4.5l.3-.4-.1-.1H94v.5zm-3.9 0l-.2.5h.2v-.5zm-7.1-2.6l.2-.5-.2.5zm-6.6-1.3v-6.4h-1v6.4h1zm-.1-6.1l6.5-8.4-.8-.6-6.4 8.4c-.1 0 .7.6.7.6zm6-8.2l5.8.6.1-1-5.8-.6-.1 1zm5.5.5l4.5 3.9.7-.8-4.5-3.9c0 .1-.7.8-.7.8zm4.7 4l5.2 1.9.3-.9-5.2-2-.3 1zm5.3 1.9h6.5v-1h-6.5v1zm6.1-.1l8.4 8.4.7-.7-8.4-8.4-.7.7zm8.8 8.5l3.9-.6-.2-1-3.9.6.2 1zm3.3-1l.6 2.6 1-.2-.6-2.6-1 .2zm1.2 3h4.5v-1h-4.5v1zm4.7-.1l9-3.2-.3-.9-9 3.2c-.1 0 .3.9.3.9zm8.3-3.7v11h1v-11h-1zm.1 10.8l-3.2 5.8.9.5 3.2-5.8c0-.1-.9-.5-.9-.5zm-3.3 6v3.9h1v-3.9h-1zm.5 3.4h-2.6v1h2.6v-1zm-2.5 0l-5.1-1.3-.2 1 5.2 1.3.1-1zm-4.7-.8v-7.1h-1v7.1h1zm-.5-7.6h-2.6v1h2.6v-1zm-2.8 0l-1.9.7.3.9 1.9-.6-.3-1zm-1.8.6h-2.6v1h2.6v-1zm-2.7.1l-11 4.5.4.9 11-4.5-.4-.9zm-10.3 4.8l-.6-1.9-.9.3.6 1.9c-.1 0 .9-.3.9-.3zm-.6-1.8v-5.8h-1v5.8h1zm-.3-6.2l-7.1-4.5-.5.8 7.1 4.5.5-.8zm-7.3-4.6H90v1h3.9v-1zm-3.7 0l-7.1-2.6-.3.9 7.1 2.6.3-.9zm-7.2-2.6l-7.1-1.3-.2 1 7.1 1.3.2-1z"/></g><g class="fmap-group"><path class="fregion" d="M195.1 161.589l7.1-1.9 8.4 11v-5.9h2.6l1.3-3.2-1.3-3.9 10.3 5.8 11.6 11.6 7.7 3.2 7.7.6 2.6.6-.6 4.5 2.6 2.7 3.9 2.6-3.9 2.6h-5.8l-3.2.6-2 7.1-1.3 1.9H237l-4.5-3.8-8.4.6-3.8-.6-1.3-3.2-.6-3.9-3.9 1.9-3.9-1.3-1.9-3.9 1.9-4.5 1.9-3.2-4.5-3.2-6.4-5.8-3.9-5.2-2.6-3.8z"/><path class="fregion-stroke" d="M202.2 159.589l.4-.3-.2-.2-.3.1.1.4zm-7.1 2l-.1-.5-.7.2.4.6.4-.3zm2.6 3.8l-.4.3.4-.3zm3.8 5.2l-.4.3c.1.1.5-.3.4-.3zm6.5 5.8l-.3.4.3-.4zm4.5 3.2l.4.3.2-.4-.4-.3-.2.4zm-1.9 3.2l-.4-.3c-.1.2.4.3.4.3zm-2 4.6l-.5-.2v.2l.1.2.4-.2zm2 3.8l-.5.3.1.2.2.1c0-.1.2-.6.2-.6zm3.8 1.3l-.2.5.2.1.2-.1c.1 0-.2-.5-.2-.5zm3.9-1.9l.5-.1-.1-.7-.6.3.2.5zm.7 3.9l-.5.1v.2c0-.2.5-.3.5-.3zm1.3 3.2l-.5.2.1.3h.3l.1-.5zm3.8.6l-.1.5h.2l-.1-.5zm8.4-.6l.3-.4-.2-.1h-.2l.1.5zm4.5 3.8l-.3.4.1.1h.2v-.5zm5.8 0v.5h.3l.1-.2-.4-.3zm1.3-1.9l.4.3v-.2l-.4-.1zm2-7.1l-.1-.5-.3.1-.1.3.5.1zm3.2-.6v-.5.5zm5.8 0v.5h.2l.1-.1-.3-.4zm3.9-2.6l.3.4.6-.4-.6-.4c-.1 0-.3.4-.3.4zm-3.9-2.6l-.4.4.4-.4zm-2.6-2.6l-.5-.1v.2l.2.2.3-.3zm.6-4.5l.5.1.1-.4-.4-.1-.2.4zm-2.5-.6l.1-.5-.1.5zm-7.8-.7l-.2.5h.2v-.5zm-7.7-3.2l-.4.4.1.1h.1l.2-.5zm-11.6-11.6l.4-.4h-.1c-.1 0-.3.4-.3.4zm-10.3-5.8l.2-.4-1.1-.6.4 1.2.5-.2zm1.2 3.9l.5.2.1-.2-.1-.2-.5.2zm-1.2 3.2v.5h.3l.1-.3-.4-.2zm-2.6 0v-.5h-.5v.5h.5zm0 5.8l-.4.3.9 1.2v-1.5h-.5zm-8.5-11.4l-7.1 1.9.3 1 7.1-1.9c-.1-.1-.3-1-.3-1zm-7.4 2.6l2.6 3.9.8-.5-2.6-3.9-.8.5zm2.6 3.9l3.9 5.2.8-.6-3.9-5.2-.8.6zm3.9 5.3l6.5 5.8.7-.7-6.4-5.8c-.1-.1-.8.7-.8.7zm6.5 5.8l4.5 3.2.6-.8-4.5-3.2-.6.8zm4.4 2.6l-1.9 3.2.9.5 1.9-3.2c-.1 0-.9-.5-.9-.5zm-2 3.3l-1.9 4.5.9.4 1.9-4.5c0-.1-.9-.4-.9-.4zm-1.9 4.9l1.9 3.9.9-.4-1.9-4-.9.5zm2.2 4.1l3.9 1.3.3-.9-3.9-1.3-.3.9zm4.3 1.3l3.9-1.9-.5-1-3.9 1.9.5 1zm3.1-2.3l.6 3.9 1-.2-.6-3.9-1 .2zm.7 3.9l1.3 3.2.9-.4-1.3-3.2c0 .1-.9.4-.9.4zm1.7 3.6l3.9.6.2-1-3.9-.6c-.1 0-.2 1-.2 1zm4 .6l8.4-.6-.1-1-8.4.6.1 1zm8-.7l4.5 3.9.7-.8-4.5-3.9-.7.8zm4.8 3.9h5.8v-1H237v1zm6.2-.2l1.3-1.9-.8-.6-1.3 1.9.8.6zm1.4-2.1l1.9-7.1-1-.3-1.9 7.1 1 .3zm1.6-6.7l3.2-.6-.2-1-3.2.6.2 1zm3.1-.6h5.8v-1h-5.8v1zm6.1-.1l3.9-2.6-.6-.8-3.9 2.6.6.8zm3.8-3.4l-3.9-2.6-.6.8 3.9 2.6.6-.8zm-3.8-2.5l-2.6-2.6-.7.7 2.6 2.6.7-.7zm-2.4-2.2l.6-4.5-1-.1-.6 4.5 1 .1zm.3-5.1l-2.6-.6-.2 1 2.6.6.2-1zm-2.7-.6l-7.7-.6-.1 1 7.7.6.1-1zm-7.6-.6l-7.7-3.2-.4.9 7.7 3.2.4-.9zm-7.6-3.1l-11.6-11.7-.7.8 11.6 11.6.7-.7zm-11.7-11.7l-10.3-5.8-.5.9 10.3 5.8c0-.1.5-.9.5-.9zm-11-5.2l1.3 3.8.9-.3-1.3-3.9-.9.4zm1.3 3.5l-1.3 3.2.9.4 1.3-3.2-.9-.4zm-.8 2.9h-2.6v1h2.6v-1zm-3.1.5v5.8h1v-5.8h-1zm.9 5.5l-8.4-11-.8.6 8.4 11 .8-.6z"/></g><g class="fmap-group"><path class="fregion" d="M179 126.717l-7.7-8.4v-2.5l5.2-1.9 9.6-3.3 3.9 1.3-.6 7.1-2.6 3.2 1.9 2.6-5.8 4.5-2.6-.6-1.3-2z"/><path class="fregion-stroke" d="M171.3 118.317h-.5v.2l.1.1.4-.3zm7.7 8.4l.4-.3-.4.3zm1.3 2l-.4.3.1.2h.2c0-.1.1-.5.1-.5zm2.6.6l-.1.5.2.1.2-.1c0-.1-.3-.5-.3-.5zm5.8-4.5l.3.4.4-.3-.3-.4-.4.3zm-1.9-2.6l-.4-.3-.2.3.2.3.4-.3zm2.6-3.2l.4.3.1-.1v-.1c0-.1-.5-.1-.5-.1zm.6-7.1h.5v-.4l-.4-.1-.1.5zm-3.9-1.3l.2-.5-.2-.1-.2.1.2.5zm-9.6 3.2l-.2-.5c0 .1.2.5.2.5zm-5.2 2l-.2-.5-.3.1v.3h.5zm-.4 2.9l7.7 8.4.7-.7-7.6-8.4-.8.7zm7.7 8.3l1.3 1.9.8-.6-1.3-1.9c.1 0-.8.6-.8.6zm1.6 2.1l2.6.6.2-1-2.6-.6c.1.1-.2 1-.2 1zm3 .6l5.8-4.5-.6-.8-5.8 4.5.6.8zm5.9-5.2l-1.9-2.6-.8.6 1.9 2.6.8-.6zm-1.9-2l2.6-3.2-.8-.6-2.6 3.2.8.6zm2.7-3.5l.6-7.1-1-.1-.6 7.1 1 .1zm.3-7.6l-3.9-1.3-.3.9 3.9 1.3c-.1.1.3-.9.3-.9zm-4.2-1.3l-9.7 3.2.3.9 9.7-3.1-.3-1zm-9.7 3.3l-5.2 1.9.4.9 5.2-1.9c-.1 0-.4-.9-.4-.9zm-5.5 2.4v2.6h1v-2.6h-1z"/></g><g class="fmap-group"><path class="fregion" d="M171.3 118.338v-2.6l-17.4-7.7-2.6 5.2v3.8l1.3 3.2 8.4 6.4h1.9l4.5-7.7c0 .1 3.9-.6 3.9-.6z"/><path class="fregion-stroke" d="M171.3 115.738h.5v-.3l-.3-.1-.2.4zm0 2.6l.1.5.4-.1v-.4h-.5zm-3.9.7l-.1-.5h-.2l-.1.2.4.3zm-4.5 7.7v.5h.3l.1-.2-.4-.3zm-1.9 0l-.3.4.1.1h.2v-.5zm-8.4-6.4l-.5.2.1.1h.1l.3-.3zm-1.3-3.3h-.5v.2l.5-.2zm0-3.8l-.4-.2h-.1v.1h.5zm2.6-5.2l.2-.5-.5-.2-.2.5.5.2zm16.9 7.7v2.6h1v-2.6h-1zm.4 2.1l-3.9.7.2 1 3.9-.6-.2-1.1zm-4.2.9l-4.5 7.7.8.6 4.5-7.7c.1-.1-.8-.6-.8-.6zm-4.1 7.5H161v1h1.9v-1zm-1.6.1l-8.4-6.4-.6.7 8.4 6.4c0 .1.6-.7.6-.7zm-8.2-6.2l-1.3-3.3-.9.4 1.3 3.2c-.1 0 .9-.3.9-.3zm-1.3-3.1v-3.8h-1v3.8h1zm-.1-3.6l2.6-5.2-.9-.4-2.6 5.2c.1-.1.9.4.9.4zm2-4.9l17.4 7.7.4-.9-17.4-7.8-.4 1z"/></g><g class="fmap-group"><path class="fregion" d="M153.9 102.89v5.2l17.4 7.7 5.2-1.9v-10.4l-5.8-1.9h-12.3l-4.5 1.3z"/><path class="fregion-stroke" d="M153.9 107.99h-.5v.3l.3.1.2-.4zm0-5.1l-.1-.5-.4.1v.4h.5zm4.5-1.3v-.5h-.2l.2.5zm12.3 0l.2-.5h-.2v.5zm5.8 1.9h.5v-.3l-.3-.1-.2.4zm0 10.4l.2.5.3-.1v-.3c0-.1-.5-.1-.5-.1zm-5.2 1.9l-.2.5.2.1.2-.1-.2-.5zm-16.9-7.8v-5.1h-1v5.2h1zm-.4-4.6l4.5-1.3-.3-1-4.5 1.3c.1 0 .3 1 .3 1zm4.4-1.3h12.3v-1h-12.3v1zm12.1 0l5.8 1.9.3-.9-5.8-1.9c0-.1-.3.9-.3.9zm5.5 1.4v10.3h1v-10.3h-1zm.3 9.9l-5.2 1.9.4.9 5.2-1.9-.4-.9zm-4.8 1.9l-17.4-7.7-.4.9 17.4 7.7.4-.9z"/></g><g class="fmap-group"><path class="fregion" d="M189.4 119.022l.6-7.1.6-2.6 1.3-3.2 4.6-7.1.6-3.2-1.9-13.6 1.9-3.2 4.5.6 4.5 5.8v5.2l2.6.6.6 5.8 1.3 2.6h1.9l3.9-2.6v2.6l-.6 5.2-4.5.6-1.9 14.2h-11l-5.2 7.1h-1.9l-2.6-1.9-1.9-2.6 2.6-3.2z"/><path class="fregion-stroke" d="M190 111.922l-.5-.1.5.1zm-.6 7.1l.4.3.1-.1v-.1c0-.1-.5-.1-.5-.1zm-2.6 3.2l-.4-.3-.2.3.2.3.4-.3zm1.9 2.6l-.4.3v.1h.1l.3-.4zm2.6 1.9l-.3.4.1.1h.2v-.5zm1.9 0v.5h.3l.2-.2-.5-.3zm5.2-7.1v-.5h-.3l-.1.2.4.3zm11 0v.5h.4l.1-.4-.5-.1zm1.9-14.2l-.1-.5-.3.1-.1.4h.5zm4.5-.6l.1.5.4-.1v-.4c0 .1-.5 0-.5 0zm.7-5.2l.5.1c0-.1-.5-.1-.5-.1zm0-2.5h.5v-.9l-.8.5c0-.1.3.4.3.4zm-3.9 2.5v.5h.2l.1-.1-.3-.4zm-1.9 0l-.4.2.1.3h.3v-.5zm-1.3-2.5l-.5.1v.2l.5-.3zm-.7-5.8l.5-.1v-.3l-.3-.1-.2.5zm-2.5-.7h-.5v.4l.4.1.1-.5zm0-5.2h.5v-.1l-.1-.1c-.1-.1-.4.2-.4.2zm-4.6-5.8l.4-.3-.1-.2h-.2l-.1.5zm-4.5-.6l.1-.5h-.3l-.2.2.4.3zm-1.9 3.2l-.4-.2-.1.1v.2l.5-.1zm1.9 13.6l.5.1v-.2l-.5.1zm-.6 3.2l.4.3.1-.1v-.1l-.5-.1zm-4.5 7.1l-.4-.3c-.1.1.4.3.4.3zm-1.3 3.2l-.5-.2.5.2zm-1.2 2.5l-.6 7.1 1 .1.6-7.1-1-.1zm-.5 6.9l-2.6 3.2.8.6 2.6-3.2-.8-.6zm-2.6 3.8l1.9 2.6.8-.6-1.9-2.6-.8.6zm2 2.7l2.6 1.9.6-.8-2.6-1.9-.6.8zm2.9 2h1.9v-1h-1.9v1zm2.4-.2l5.2-7.1-.8-.6-5.3 7.1.9.6zm4.7-6.9h11v-1h-11v1zm11.5-.4l1.9-14.2-1-.1-1.9 14.2 1 .1zm1.5-13.8l4.5-.6-.1-1-4.5.6.1 1zm4.9-1l.6-5.2-1-.1-.6 5.2 1 .1zm.7-5.3v-2.6h-1v2.6h1zm-.8-3l-3.9 2.6.6.8 3.9-2.6-.6-.8zm-3.6 2.5h-1.9v1h1.9v-1zm-1.5.3l-1.3-2.6-.9.4 1.3 2.6c0 .1.9-.4.9-.4zm-1.2-2.4l-.6-5.8-1 .1.6 5.8 1-.1zm-1-6.2l-2.6-.6-.2 1 2.6.6.2-1zm-2.3-.2v-5.2h-1v5.2h1zm-.1-5.5l-4.5-5.8-.8.7 4.6 5.8.7-.7zm-4.8-6l-4.5-.6-.1 1 4.5.6.1-1zm-5-.4l-1.9 3.3.9.5 1.9-3.2-.9-.6zm-2 3.6l1.9 13.5 1-.1-1.9-13.5-1 .1zm1.9 13.4l-.6 3.2 1 .2.6-3.2-1-.2zm-.5 3l-4.5 7.1.8.5 4.5-7.1c0 .1-.8-.5-.8-.5zm-4.6 7.2l-1.3 3.2.9.4 1.3-3.2-.9-.4zm-1.3 3.3l-.6 2.6 1 .2.6-2.6-1-.2z"/></g><g class="fmap-group"><path class="fregion" d="M176.5 113.837v-9.7l-2.6-1.3 2.6-1.9-1.9-5.2-3.2-9-2.6-10.3-2-5.8-3.2-1.3-3.9 1.3-4.5 3.2h-1.3l-1.9-1.9-3.2-.6-3.2.6-8.5 3.2v-2.6l-.6-3.2-5.8-5.8-3.9-4.5 1.9-5.2 1.9-1.3h6.4l1.3-3.2h1.9l6.6 2 1.9-5.2 5.2 3.2 6.4-3.2 3.2.6 5.2 9.7 2.6 3.2h12.3l1.3 4.5 2.6 8.4-5.8 7.7.6 13.5-2.6 3.9-.6 1.9 3.2 1.9-3.3 2.7 1.3 8.4-3.8 1.3z"/><path class="fregion-stroke" d="M176.5 104.137h.5v-.3l-.3-.1-.2.4zm0 9.7h-.5v.7l.7-.2-.2-.5zm3.8-1.3l.2.5.4-.1-.1-.5-.5.1zm-1.3-8.4l-.3-.4-.2.2v.3l.5-.1zm3.3-2.5l.3.4.6-.4-.7-.5-.2.5zm-3.3-2l-.5-.2-.1.4.3.2.3-.4zm.7-1.9l-.4-.3v.2c-.1-.1.4.1.4.1zm2.6-3.9l.4.3.1-.1v-.2h-.5zm-.7-13.5l-.4-.3-.1.1v.2h.5zm5.8-7.8l.4.3.2-.2-.1-.2-.5.1zm-2.5-8.3l-.5.1s.4-.1.5-.1zm-1.3-4.6l.5-.1-.2-.4h-.4c.1 0 .1.5.1.5zm-12.3 0l-.4.3.2.2h.2v-.5zm-2.6-3.2l-.4.2c0 .1.4-.2.4-.2zm-5.1-9.7l.4-.2-.1-.2h-.2l-.1.4zm-3.3-.6l.1-.5h-.2l-.2.1.3.4zm-6.4 3.2l-.3.4.2.1.3-.1c0 .1-.2-.4-.2-.4zm-5.2-3.2l.3-.4-.5-.3-.2.6.4.1zm-1.9 5.2l-.1.5.4.1.2-.4c0-.1-.5-.2-.5-.2zm-6.5-2l.1-.5h-.2c.1 0 .1.5.1.5zm-1.9 0v-.5h-.3l-.2.3.5.2zm-1.3 3.2v.5h.3l.1-.3-.4-.2zm-6.4 0v-.5h-.2l-.1.1.3.4zm-2 1.3l-.2-.4-.2.1v.2l.4.1zm-1.9 5.2l-.5-.2-.1.3.2.2.4-.3zm3.9 4.5l-.4.3c0 .1.4-.3.4-.3zm5.8 5.8l.5-.1v-.1l-.2-.1-.3.3zm.6 3.2h.5-.5zm0 2.6h-.5v.7l.7-.3c0 .1-.2-.4-.2-.4zm8.4-3.2l-.1-.5c-.1 0 .1.5.1.5zm3.2-.7l.1-.5h-.2l.1.5zm3.3.7l.4-.4-.1-.1h-.1l-.2.5zm1.9 1.9l-.4.4.1.1h.2v-.5zm1.3 0v.5h.2l.1-.1-.3-.4zm4.5-3.2l-.2-.5h-.2l.4.5zm3.9-1.3l.2-.5-.2-.1-.2.1.2.5zm3.2 1.3l.5-.2-.1-.2-.2-.1-.2.5zm1.9 5.8l.5-.1-.5.1zm2.6 10.3l-.5.1.5-.1zm3.2 9.1l-.5.2c.1-.1.5-.2.5-.2zm2 5.1l.3.4.3-.2-.1-.4-.5.2zm-2.6 1.9l-.3-.4-.6.5.7.4.2-.5zm2.1 1.3v9.7h1v-9.7h-1zm.6 10.2l3.9-1.3-.3-.9-3.9 1.3c0-.1.3.9.3.9zm4.2-1.9l-1.3-8.3-1 .2 1.3 8.4 1-.3zm-1.4-7.9l3.2-2.6-.6-.8-3.2 2.6.6.8zm3.1-3.4l-3.2-1.9-.5.8 3.2 1.9.5-.8zm-3-1.3l.6-1.9-.9-.3-.6 1.9.9.3zm.6-1.8l2.6-3.9-.8-.6-2.6 3.9.8.6zm2.7-4.2l-.6-13.5h-1l.6 13.5h1zm-.8-13.2l5.8-7.7-.8-.6-5.8 7.7.8.6zm5.9-8.2l-2.6-8.4-1 .3 2.6 8.4c.1 0 1-.3 1-.3zm-2.6-8.4l-1.3-4.5-1 .3 1.3 4.5c.1 0 1-.3 1-.3zm-1.7-4.9h-7.1v1h7.1v-1zm-7.1 0h-5.2v1h5.2v-1zm-4.8.2l-2.6-3.2-.8.6 2.6 3.2c0 .1.8-.6.8-.6zm-2.5-3.1l-5.2-9.7-.9.5 5.2 9.7.9-.5zm-5.5-9.9l-3.2-.6-.2 1 3.2.6.2-1zm-3.6-.6l-6.5 3.2.4.9 6.4-3.2c.2-.1-.3-.9-.3-.9zm-5.9 3.2l-5.2-3.2-.5.8 5.2 3.2c-.1 0 .5-.8.5-.8zm-5.9-3l-2 5.2.9.4 1.9-5.2c.1 0-.8-.4-.8-.4zm-1.4 4.9l-6.4-1.9-.3 1 6.4 1.9.3-1zm-6.6-2h-1.9v1h1.9v-1zm-2.4.3l-1.2 3.3.9.4 1.3-3.2-1-.5zm-.8 2.9h-6.4v1h6.4v-1zm-6.7.1l-1.9 1.3.6.8 1.9-1.3c-.1.1-.6-.8-.6-.8zm-2.1 1.6l-1.9 5.2.9.4 1.9-5.2-.9-.4zm-1.9 5.6l3.9 4.5.8-.7-3.9-4.5c0 .1-.8.7-.8.7zm3.9 4.6l5.8 5.8.7-.7-5.8-5.8-.7.7zm5.7 5.5l.6 3.2 1-.2-.6-3.2-1 .2zm.6 3.1v2.6h1v-2.6h-1zm.7 3.1l8.4-3.2-.4-.9-8.4 3.2c0-.1.4.9.4.9zm8.3-3.2l3.2-.6-.2-1-3.2.6.2 1zm3-.7l3.2.6.2-1-3.2-.5-.2.9zm3 .5l1.9 1.9.7-.7-1.9-1.9-.7.7zm2.3 2.1h1.3v-1h-1.3v1zm1.6-.1l4.5-3.2-.6-.8-4.5 3.2.6.8zm4.4-3.1l3.9-1.3-.3-.9-4 1.2.4 1zm3.5-1.3l3.2 1.3.4-.9-3.2-1.4-.4 1zm2.9 1l1.9 5.8.9-.3-1.9-5.8-.9.3zm1.9 5.7l2.6 10.3 1-.2-2.6-10.3-1 .2zm2.6 10.4l3.2 9 .9-.3-3.2-9c.1 0-.9.3-.9.3zm3.3 9l1.9 5.2.9-.4-1.9-5.2-.9.4zm2.1 4.6l-2.6 1.9.6.8 2.6-1.9-.6-.8zm-2.5 2.8l2.6 1.3.4-.9-2.6-1.3-.4.9z"/></g><g class="fmap-group"><path class="fregion" d="M179 104.174l3.2-2.6-3.2-1.9.6-1.9 2.6-3.9-.6-13.6 5.8-7.7 9.7 6.4-1.9 3.2 1.9 13.5-.6 3.2-4.5 7.1-1.3 3.2-.7 2.7-3.9-1.3-5.8 2-1.3-8.4z"/><path class="fregion-stroke" d="M182.2 101.574l.3.4.6-.4-.6-.4-.3.4zm-3.2 2.6l-.3-.4-.2.2v.3l.5-.1zm1.3 8.4l-.5.1.1.6.6-.2c-.1 0-.2-.5-.2-.5zm5.8-2l.2-.5-.2-.1-.2.1.2.5zm3.9 1.3l-.2.5.5.2.1-.5-.4-.2zm.6-2.5l-.5-.2.5.2zm1.3-3.3l-.4-.3c-.1.1.4.3.4.3zm4.5-7.1l.4.3.1-.1v-.1l-.5-.1zm.7-3.2l.5.1v-.2l-.5.1zm-2-13.5l-.4-.3-.1.2v.2l.5-.1zm2-3.3l.4.3.2-.4-.4-.3-.2.4zm-9.7-6.4l.3-.4-.4-.3-.3.4.4.3zm-5.8 7.7l-.4-.3-.1.2v.2l.5-.1zm.6 13.6l.4.3.1-.1v-.2h-.5zm-2.6 3.8l-.4-.3v.2l.4.1zm-.6 2l-.5-.2-.1.4.3.2.3-.4zm2.9 1.5l-3.2 2.6.6.8 3.2-2.6-.6-.8zm-3.4 3.1l1.3 8.4 1-.2-1.3-8.4-1 .2zm1.9 8.8l5.8-1.9-.3-.9-5.8 1.9c0-.1.3.9.3.9zm5.5-2l3.9 1.3.3-.9-3.9-1.3-.3.9zm4.6 1l.6-2.6-1-.2-.6 2.6 1 .2zm.6-2.6l1.3-3.2-.9-.4-1.3 3.2c-.1.1.9.4.9.4zm1.2-3.1l4.5-7.1-.8-.5-4.5 7.1.8.5zm4.6-7.3l.6-3.2-1-.2-.6 3.2 1 .2zm.7-3.4l-2-13.5-1 .1 1.9 13.5c.1.1 1.1-.1 1.1-.1zm-2-13.2l1.9-3.2-.9-.5-1.9 3.2.9.5zm1.7-3.9l-9.6-6.4-.6.8 9.7 6.4c0 .1.5-.8.5-.8zm-10.3-6.3l-5.8 7.7.8.6 5.8-7.7-.8-.6zm-5.9 8.1l.6 13.5h1l-.6-13.6-1 .1zm.7 13.2l-2.6 3.9.8.6 2.6-3.9-.8-.6zm-2.6 4l-.6 1.9.9.3.6-1.9-.9-.3zm-.5 2.5l3.3 1.9.5-.9-3.2-1.9c0 .1-.6.9-.6.9z"/></g><g class="fmap-group"><path class="fregion" d="M158.4 101.55l-4.5 1.3-3.9-3.9h-2.6l-3.8 1.4-5.8-.6-8.4-1.9-6.4-1.3-5.8-1.9-8.4-1.3-4.5-1.9-.7-4v-7.7l.6-2.6 2.6.6 2.6 3.2 5.2 4.5 4.5 2.6 1.9 3.9h2.6l.6-3.2.6-5.8 2.6-1.3 6.4 1.3 1.3-1.3 1.9-6.4 8.4-3.2 3.2-.6 3.2.6 1.9 1.9h1.3l3.9-3.2 4.7-1.4 3.2 1.3 2.6 8.4 2.6 9 4.5 12.9-2.6 1.9-3.2-1.3h-12.3z"/><path class="fregion-stroke" d="M153.9 102.85l-.3.4.2.2.3-.1-.2-.5zm4.5-1.3v-.5h-.2l.2.5zm12.3 0l.2-.5h-.2v.5zm3.2 1.3l-.2.5.3.1.2-.2-.3-.4zm2.6-1.9l.3.4.3-.2-.1-.3-.5.1zm-4.5-12.9l-.5.1.5-.1zm-2.6-9l.5-.1c0-.1-.5.1-.5.1zm-2.6-8.4l.5-.1-.1-.2-.2-.1-.2.4zm-3.2-1.3l.2-.5h-.4l.2.5zm-4.5 1.3l-.1-.5h-.1l-.1.1.3.4zm-3.9 3.2v.5h.2l.1-.1-.3-.4zm-1.3 0l-.3.4.1.1h.2v-.5zm-1.9-1.9l.4-.4-.1-.1h-.1c-.1 0-.2.5-.2.5zm-3.3-.7l.1-.5h-.2l.1.5zm-3.2.7l-.1-.5c-.1 0 .1.5.1.5zm-8.4 3.2l-.2-.5-.2.1-.1.2.5.2zm-1.9 6.5l.4.4.1-.1v-.1c0-.1-.5-.2-.5-.2zm-1.3 1.2l-.1.5.3.1.2-.2-.4-.4zm-6.4-1.2l.1-.5h-.2l-.2.1c0-.1.3.4.3.4zm-2.6 1.2l-.2-.4-.2.1v.3h.4zm-.7 5.8l.5.1-.5-.1zm-.6 3.3v.5h.4l.1-.4-.5-.1zm-2.6 0l-.4.2.1.3h.3v-.5zm-1.9-3.9l.4-.2-.1-.1-.1-.1-.2.4zm-4.5-2.6l-.3.4.3-.4zm-5.2-4.5l-.4.3.4-.3zm-2.6-3.2l.4-.3-.1-.2h-.2l-.1.5zm-2.6-.7l.1-.5-.4-.1-.1.5.4.1zm-.6 2.6l-.5-.1v.2c0-.1.5-.1.5-.1zm0 7.8h-.5.5zm.6 3.8l-.4.1v.3l.3.1c-.1 0 .1-.5.1-.5zm4.6 2l-.2.4h.2c-.1.1 0-.4 0-.4zm8.3 1.2l.2-.5c-.1.1-.2.5-.2.5zm5.9 2l-.2.5.2-.5zm6.4 1.3l.1-.5-.1.5zm8.4 1.9l-.1.5.1-.5zm5.8.7l-.1.5h.2l-.1-.5zm3.9-1.3v-.5h-.2l.2.5zm2.5 0l.4-.4-.1-.1h-.2c-.1 0-.1.5-.1.5zm4 4.3l4.5-1.3-.3-1-4.4 1.3.2 1zm4.4-1.3h12.3v-1h-12.3v1zm12.1 0l3.2 1.3.4-.9-3.2-1.3-.4.9zm3.7 1.2l2.6-1.9-.6-.8-2.6 1.9.6.8zm2.8-2.5l-4.5-12.9-.9.3 4.5 12.9.9-.3zm-4.5-12.8l-2.6-9-1 .3 2.6 9 1-.3zm-2.6-9.1l-2.6-8.4-1 .3 2.6 8.4 1-.3zm-2.9-8.7l-3.2-1.3-.4.9 3.2 1.4.4-1zm-3.6-1.3l-4.5 1.3.3 1 4.5-1.3-.3-1zm-4.6 1.4l-3.9 3.2.6.8 3.9-3.2-.6-.8zm-3.6 3.1h-1.3v1h1.3v-1zm-.9.2l-1.9-1.9-.8.6 2 2 .7-.7zm-2.2-2.1l-3.2-.6-.2 1 3.2.6.2-1zm-3.4-.7l-3.2.6.2 1 3.2-.6c-.1 0-.2-1-.2-1zm-3.4.7l-8.4 3.2.4.9 8.4-3.2-.4-.9zm-8.6 3.6l-1.9 6.4 1 .3 1.8-6.5-.9-.2zm-1.8 6.2l-1.3 1.3.7.7 1.3-1.3-.7-.7zm-.9 1.2l-6.4-1.3-.2 1 6.5 1.3.1-1zm-6.8-1.3l-2.6 1.3.4.9 2.6-1.3-.4-.9zm-2.8 1.7l-.6 5.8 1 .1.6-5.8-1-.1zm-.7 5.7l-.6 3.2 1 .2.6-3.2-1-.2zm-.1 2.9H121v1h2.6v-1zm-2.1.2l-1.9-3.9-1 .5 1.9 3.9c.1 0 1-.5 1-.5zm-2.2-4l-4.5-2.6-.5.9 4.5 2.6c0-.1.5-.9.5-.9zm-4.4-2.6l-5.2-4.5-.6.8 5.2 4.5c-.1 0 .6-.8.6-.8zm-5.1-4.4l-2.6-3.2-.8.6 2.6 3.2.8-.6zm-2.9-3.4l-2.5-.6-.2 1 2.6.6c-.1 0 .1-1 .1-1zm-3.1-.3l-.6 2.6 1 .2.6-2.6c-.1.1-1-.2-1-.2zm-.7 2.7v7.7h1v-7.7h-1zm0 7.8l.7 3.9 1-.2-.7-3.8-1 .1zm.9 4.3l4.6 1.9.4-.9-4.5-1.9c-.1 0-.5.9-.5.9zm4.7 2l8.4 1.3.2-1-8.4-1.3c-.1 0-.2 1-.2 1zm8.3 1.2l5.8 1.9.3-.9-5.8-1.9-.3.9zm5.9 2l6.5 1.3.2-1-6.5-1.3-.2 1zm6.4 1.3l8.4 1.9.2-1-8.4-1.9-.2 1zm8.4 1.9l5.8.6.1-1-5.8-.6-.1 1zm6 .6l3.9-1.3-.3-.9-3.9 1.3.3.9zm3.8-1.2h2.6v-1h-2.6v1zm2.2-.2l3.9 3.9.7-.7-3.9-3.9-.7.7z"/></g><g class="fmap-group"><path class="fregion" d="M106.8 77.7l-2.6-.6-.6-2.6-1.9-3.9-1.9-1.3-1.9-1.9 3.9-.6 1.3-1.9-2.6-1.9-4.5-2.6.6-1.9 3.9-1.9 1.3-3.2-1.9-6.4-2.8-6-5.2-5.2-5.2-3.2-7.7-1.3-4.5-3.2-7.1-3.9-9-1.3-7.7-.6-9.7-2-7.7-1.3-3.9.6h-4.5l-5.8 3.9-3.9 1.9-2.6-.6-1.9-2.6H2.3L1 21v-1.3l1.9-1.9 3.2-3.9 6.4-5.8 5.2-3.2 2.6-1.3.7 1.9-.6 2.6 1.9.6 2.6-1.9 2.6 1.9 5.2 1.9V5.5l5.8-1.3 5.2-2.6 4.5 1.3 2.6.6.5-2.5 1.9 1.9 3.2 1.9h1.9l-1.9-1.9.6-1.3 3.2.6 4.5 1.9L70 6.8l4.5 5.2 3.9 1.9 5.2 2.6 5.8.6 2.6 3.2 8.4 3.2 6.4 3.9 4.5 4.5 6.4 2.6 9 1.3 11 4.5 11 5.8-1.9 5.2-6.4-1.9h-1.9l-1.3 3.2h-6.4l-1.9 1.3-1.9 5.2 1.9 2.6 7.7 7.7.6 5.8-1.9 6.4-1.3 1.3-2.6-.6-3.9-.6-2.6 1.3-.6 5.8-.6 3.2H121l-2-4-4.5-2.6-5.2-4.5-2.5-3.2z"/><path class="fregion-stroke" d="M104.2 77.1l-.5.1.1.3.3.1.1-.5zm2.6.6l.4-.3-.1-.1h-.2c0-.1-.1.4-.1.4zm2.6 3.3l-.4.3.4-.3zm5.1 4.5l-.3.4.3-.4zM119 88l.4-.2-.1-.1-.1-.1c.1 0-.2.4-.2.4zm2 3.9l-.4.2.1.3h.3v-.5zm2.6 0v.5h.4V92l-.4-.1zm.6-3.2l.5.1c0-.1-.5-.1-.5-.1zm.6-5.8l-.2-.4-.2.1v.3c-.1-.1.4 0 .4 0zm2.6-1.3l.1-.5h-.2l-.1.1.2.4zm3.9.6l.1-.5-.1.5zm2.6.7l-.1.5.3.1.2-.2-.4-.4zm1.3-1.3l.4.4.1-.1v-.1l-.5-.2zm1.9-6.4l.5.1v-.2l-.5.1zm-.7-5.9l.5-.1V69l-.1-.1-.4.4zm-7.7-7.7l-.4.3.4-.3zm-1.9-2.6l-.5-.2-.1.3.2.2.4-.3zm1.9-5.1l-.3-.4-.1.1-.1.2.5.1zm1.9-1.3v-.5h-.2l-.1.1.3.4zm6.5 0v.5h.3l.1-.3-.4-.2zm1.3-3.2v-.5h-.4l-.1.3.5.2zm1.9 0l.1-.5h-.2v.5zm6.5 1.9l-.1.5.4.1.2-.4c-.1 0-.5-.2-.5-.2zm1.9-5.2l.5.2.2-.4-.4-.2c-.1 0-.3.4-.3.4zm-11-5.8l.2-.4-.2.4zm-10.9-4.5l.2-.5h-.2v.5zm-9.1-1.3l-.2.5h.2v-.5zm-6.4-2.5l-.4.4.1.1h.1c0-.1.2-.5.2-.5zm-4.5-4.6l.4-.4h-.1c-.1 0-.3.4-.3.4zm-6.5-3.8l.3-.4c-.1-.1-.3.4-.3.4zm-8.4-3.3l-.4.3.1.1h.1c.1.1.2-.4.2-.4zm-2.5-3.2l.4-.3-.1-.2h-.2l-.1.5zm-5.8-.6l-.2.4h.2c-.1.1 0-.4 0-.4zM74.5 12l-.4.3.1.1h.1l.2-.4zM70 6.8l.4-.3-.1-.1h-.1l-.2.4zm-5.1-2.6l.2-.4-.2.4zm-4.6-1.9l.2-.5h-.1l-.1.5zm-3.2-.7l.1-.5-.4-.1-.2.3.5.3zm-.6 1.3l-.5-.2-.1.3.3.3c-.1 0 .3-.4.3-.4zm1.9 2v.5h1.2l-.9-.9c.1 0-.3.4-.3.4zm-1.9 0l-.3.4.1.1h.1c.1 0 .1-.5.1-.5zm-3.3-2l-.4.4h.1c.1.1.3-.4.3-.4zM51.3 1l.4-.4L51 0l-.2.9.5.1zm-.6 2.6l-.1.5.4.1.1-.5-.4-.1zm-2.6-.7l-.1.5.1-.5zm-4.5-1.3l.1-.5-.2-.1-.2.1c0 .1.3.5.3.5zm-5.2 2.6l.1.5h.2l-.3-.5zm-5.8 1.3l-.1-.5-.4.1v.4h.5zm0 5.2l-.2.5.7.3v-.8h-.5zm-5.2-2l-.3.4h.2c0 .1.1-.4.1-.4zm-2.5-1.9l.3-.4-.3-.2-.3.2.3.4zm-2.6 1.9l-.2.5.2.1.2-.2c.1 0-.2-.4-.2-.4zm-1.9-.6l-.5-.1-.1.4.4.1.2-.4zm.6-2.6l.5.1v-.2l-.5.1zm-.6-1.9l.5-.2-.2-.5-.5.3.2.4zm-2.6 1.3l-.2-.4c-.1-.1.2.4.2.4zm-5.2 3.2l-.3-.4.3.4zm-6.4 5.8l-.3-.4c-.1.1.3.4.3.4zm-3.3 3.9l.4.4c0-.1-.4-.4-.4-.4zM1 19.7l-.4-.4-.1.1v.2H1zM1 21H.5v.2l.1.1.4-.3zm1.3 1.3l-.4.4.1.1h.2v-.5zm8.4 0l.4-.3-.2-.2h-.2v.5zm1.9 2.6l-.4.3.1.1h.2l.1-.4zm2.6.6l-.1.5h.2l.2-.1-.3-.4zm3.9-1.9l.2.4-.2-.4zm5.8-3.9v-.5h-.2l-.1.1.3.4zm4.5 0v.5c.1 0 0-.5 0-.5zm3.9-.6l.1-.5h-.2l.1.5zm7.7 1.2l.1-.5-.1.5zm9.7 2l-.1.5.1-.5zm7.7.6l.1-.5-.1.5zm9 1.3l.2-.4h-.2c.1-.1 0 .4 0 .4zm7.1 3.9l.3-.4-.3.4zm4.5 3.2l-.3.4.1.1h.1l.1-.5zm7.8 1.3l.3-.4-.1-.1h-.1l-.1.5zm5.1 3.2l.4-.4-.4.4zm5.2 5.2l.5-.2v-.1l-.1-.1-.4.4zm2.6 5.8l.5-.1c-.1-.1-.5.1-.5.1zm1.9 6.4l.5.2.1-.2-.1-.2c0 .1-.5.2-.5.2zm-1.3 3.3l.2.4.2-.1.1-.2-.5-.1zm-3.8 1.9l-.2-.4h-.2l-.1.2.5.2zm-.7 1.9l-.5-.2-.1.4.4.2c0 .1.2-.4.2-.4zm4.5 2.6l.3-.4-.3.4zm2.6 1.9l.4.3.3-.4-.4-.3-.3.4zm-1.3 2l.1.5h.2l.1-.3-.4-.2zm-3.9.6l-.1-.5-1 .2.7.7.4-.4zm2 1.9l-.4.4.4-.4zm1.9 1.3l.4-.2-.1-.1-.1-.1-.2.4zm2 3.9l.5-.1v-.1l-.5.2zm.5 3.1l2.6.6.2-1-2.6-.6-.2 1zm2.3.4l2.6 3.2.8-.6-2.6-3.2-.8.6zm2.6 3.3l5.2 4.5.7-.8-5.2-4.5-.7.8zm5.3 4.6l4.5 2.6.5-.9-4.5-2.6-.5.9zm4.3 2.4l1.9 3.9.9-.4-1.9-3.9-.9.4zm2.4 4.1h2.6v-1H121v1zm3-.4l.6-3.2-1-.2-.6 3.2 1 .2zm.7-3.3l.6-5.8-1-.1-.6 5.8 1 .1zm.4-5.4l2.6-1.3-.4-.9-2.6 1.3c-.1 0 .4.9.4.9zm2.2-1.2l3.9.6.2-1-3.9-.6-.2 1zm3.9.6l2.6.6.2-1-2.6-.6-.2 1zm3 .5l1.3-1.3-.7-.7-1.3 1.3.7.7zm1.4-1.5l1.9-6.4-1-.3-1.9 6.4 1 .3zm2-6.6l-.6-5.8-1 .1.6 5.8 1-.1zm-.8-6.1l-7.7-7.7-.7.7 7.7 7.7.7-.7zm-7.7-7.7l-1.9-2.6-.8.6 1.9 2.6.8-.6zm-1.9-2.1l1.9-5.2-.9-.4-1.9 5.2c0 .1.9.4.9.4zm1.8-4.9l1.9-1.3-.6-.8-1.9 1.3.6.8zm1.6-1.2h6.4v-1h-6.4v1zm7-.3l1.3-3.2-.9-.4-1.3 3.2.9.4zm.8-2.9h1.9v-1h-1.9v1zm1.8-.1l6.4 1.9.3-1-6.4-1.9c0 .1-.3 1-.3 1zm7 1.7l1.9-5.2-.9-.4-1.9 5.2.9.4zm1.7-5.8l-11-5.8-.5.9 11 5.8.5-.9zm-11-5.8l-11-4.5-.4.9 11 4.5.4-.9zm-11.1-4.6l-9-1.3-.1 1 9 1.3.1-1zm-8.9-1.2l-6.4-2.6-.4.9 6.4 2.6c.1 0 .4-.9.4-.9zm-6.3-2.5l-4.5-4.5-.7.7 4.5 4.5.7-.7zM107 27l-6.4-3.9-.5.9 6.5 3.9c-.1 0 .4-.9.4-.9zm-6.5-3.9l-8.4-3.2-.4.9 8.4 3.2.4-.9zM92.3 20l-2.6-3.2-.7.6 2.6 3.2.7-.6zm-2.9-3.4l-5.8-.6-.1 1 5.8.6.1-1zm-5.6-.6l-5.2-2.6-.4.9 5.2 2.6c-.1 0 .4-.9.4-.9zm-5.2-2.6l-3.9-1.9-.4.9 3.9 1.9.4-.9zm-3.7-1.8l-4.5-5.2-.8.7 4.5 5.2.8-.7zm-4.7-5.2L65 3.8l-.4.9 5.2 2.6.4-.9zm-5.1-2.6l-4.5-1.9-.4.9 4.5 1.9.4-.9zm-4.7-2l-3.2-.6-.2 1 3.2.6.2-1zm-3.7-.4L56 2.7l.9.4.6-1.3c.1.1-.8-.4-.8-.4zm-.6 1.9L58 5.2l.7-.7-1.9-1.9-.7.7zm2.3 1.1h-1.9v1h1.9v-1zm-1.7 0l-3.2-1.9-.5.9 3.2 1.9.5-.9zm-3.1-1.8L51.7.7l-.7.7 1.9 1.9.7-.7zM50.8.9l-.6 2.6 1 .2.6-2.6-1-.2zm0 2.2l-2.6-.6-.2 1 2.6.6.2-1zm-2.6-.6l-4.5-1.3-.3 1 4.5 1.3c0-.1.3-1 .3-1zm-4.9-1.3l-5.2 2.6.4.9 5.2-2.6c.1 0-.4-.9-.4-.9zm-5 2.5L32.5 5l.2 1 5.8-1.3-.2-1zm-6.2 1.8v5.2h1V5.5h-1zm.7 4.7l-5.2-1.9-.4.9 5.2 1.9.4-.9zm-5.1-1.9l-2.6-1.9-.6.8 2.6 1.9.6-.8zm-3.1-1.9L22 8.3l.6.8 2.6-1.9-.6-.8zm-2.2 1.9l-1.9-.6-.3.9 1.9.6.3-.9zm-1.6-.1l.6-2.6-1-.2-.5 2.6.9.2zm.7-2.8l-.6-1.9-.9.3.6 1.9.9-.3zm-1.4-2.3l-2.6 1.3.5.9L20.6 4l-.5-.9zm-2.6 1.3l-5.2 3.2.5.8L18 5.3l-.5-.9zm-5.2 3.3l-6.5 5.8.7.7 6.4-5.8c0 .1-.6-.7-.6-.7zm-6.5 5.9l-3.2 3.9.8.6 3.2-3.9c-.1 0-.8-.6-.8-.6zm-3.2 3.8L.7 19.3l.7.7 1.9-1.9-.7-.7zM.5 19.7V21h1v-1.3h-1zm.1 1.6l1.3 1.3.7-.7-1.3-1.3c.1 0-.7.7-.7.7zm1.7 1.5h4.5v-1H2.3v1zm4.5 0h3.9v-1H6.8v1zm3.5-.2l1.9 2.6.8-.6-1.9-2.6-.8.6zm2.2 2.7l2.6.6.2-1-2.6-.6-.2 1zm2.9.6l3.9-1.9-.4-.9-3.9 2s.4.9.4.8zm3.9-1.9l5.8-3.9-.6-.8-5.8 3.9c.1 0 .6.8.6.8zm5.6-3.8h4.5v-1h-4.5v1zm4.6 0l3.9-.6-.2-1-3.9.6.2 1zm3.7-.7l7.7 1.3.2-1-7.7-1.3-.2 1zm7.7 1.3l9.7 1.9.2-1-9.7-1.9c0 .1-.2 1-.2 1zm9.7 2l7.7.6.1-1-7.7-.6-.1 1zm7.7.6l9 1.3.1-1-9-1.3c.1 0-.1 1-.1 1zm8.9 1.3l7.1 3.9.5-.9-7.1-3.9-.5.9zm7 3.8l4.5 3.2.6-.8-4.5-3.2-.6.8zm4.8 3.3l7.7 1.3.2-1-7.7-1.3c-.1 0-.2 1-.2 1zm7.5 1.2l5.2 3.2.5-.8-5.2-3.2-.5.8zm5.1 3.2l5.2 5.2.7-.7-5.2-5.2-.7.7zm5 5l2.6 5.8.9-.4-2.6-5.8-.9.4zm2.6 5.7l1.9 6.4 1-.3-1.9-6.4-1 .3zm2 6.1l-1.3 3.2.9.4 1.3-3.2-.9-.4zm-1.1 3l-3.9 1.9.4.9 3.9-1.9-.4-.9zM96 58.2l-.6 1.9.9.3.6-1.9-.9-.3zm-.4 2.6l4.5 2.6.5-.9-4.5-2.6-.5.9zm4.4 2.5l2.6 1.9.6-.8-2.6-1.9-.6.8zm2.5 1.3l-1.3 1.9.8.5 1.3-1.9-.8-.5zm-1 1.7l-3.9.6.2 1 3.9-.6-.2-1zm-4.1 1.5l1.9 1.9.7-.7-1.9-1.9-.7.7zm2 2l1.9 1.3.6-.8-1.9-1.4-.6.9zm1.8 1.1l1.9 3.9.9-.4-1.9-3.9-.9.4zm1.9 3.7l.6 2.6 1-.2-.6-2.6-1 .2z"/></g><g class="fmap-group"><path class="fregion" d="M202.3 159.638l-16.8 4.5-8.4-35.5 1.9-1.9 1.3 1.9 2.6.6 19.4 30.4z"/><path class="fregion-stroke" d="M185.5 164.138l-.5.1.1.5.5-.1-.1-.5zm16.8-4.5l.1.5.7-.2-.4-.6-.4.3zm-19.4-30.3l.4-.3-.1-.2h-.2l-.1.5zm-2.6-.7l-.4.3.1.2h.2l.1-.5zm-1.3-1.9l.4-.3-.3-.5-.4.4.3.4zm-1.9 1.9l-.4-.4-.2.2.1.3.5-.1zm8.5 36l16.8-4.5-.3-1-16.7 4.5.2 1zm17.1-5.3l-19.4-30.3-.8.5 19.4 30.3c-.1.1.8-.5.8-.5zm-19.7-30.5l-2.6-.7-.2 1 2.6.6.2-.9zm-2.3-.4l-1.2-2-.9.6 1.3 1.9.8-.5zm-2-2.1l-1.9 1.9.7.7 1.9-1.9-.7-.7zm-2.1 2.4l8.4 35.5 1-.2-8.4-35.5-1 .2z"/></g><g class="fmap-group"><path class="fregion" d="M161 131.855l1.9-5.2 4.5-7.7 3.9-.6 7.7 8.4-1.9 1.9-3.2 1.3v4.5l-4.5.6-.6-3.2-6.5.6-1.3-.6z"/><path class="fregion-stroke" d="M162.9 126.755l-.4-.3c0 .1.4.3.4.3zm-1.9 5.1l-.5-.2-.2.4.4.2.3-.4zm1.3.7l-.2.4.1.1h.1v-.5zm6.5-.6v.5l.6-.1-.1-.6c-.1.1-.5.2-.5.2zm-.1-.1l.5-.1-1 .2.5-.1zm.7 3.3l-.5.1.1.4.5-.1-.1-.4zm4.5-.7l.1.5.4-.1v-.4h-.5zm0-4.5l-.2-.5-.3.1v.3h.5zm3.2-1.3l.2.5h.1l.1-.1-.4-.4zm2-1.9l.4.4.3-.3-.4-.5-.3.4zm-7.8-8.4l.4-.3-.2-.2h-.3l.1.5zm-3.9.6v-.4h-.2l-.2.2.4.2zm-4.9 7.6l-1.9 5.2.9.4 1.9-5.2-.9-.4zm-1.7 5.8l1.3.6.4-.9-1.3-.6-.4.9zm1.5.7l6.5-.6-.1-1-6.5.6.1 1zm6.5-.6l-.1-1 .1 1zm.4-.6l-1 .2 1-.2zm-1 .1l1-.1c0-.1-1 .1-1 .1zm.1.1l.6 3.2 1-.2-.6-3.2c-.1 0-1 .2-1 .2zm1.2 3.6l4.5-.6-.1-1-4.5.6.1 1zm4.9-1.2v-4.5h-1v4.5h1zm-.3-4l3.2-1.3-.4-.9-3.2 1.3c0-.1.4.9.4.9zm3.4-1.4l1.9-1.9-.7-.8-1.9 2 .7.7zm1.9-2.7l-7.7-8.4-.7.7 7.7 8.4.7-.7zm-8.2-8.5l-3.8.7.2 1 3.9-.6-.3-1.1zm-4.2.9l-4.5 7.7.9.5 4.5-7.7-.9-.5z"/></g><g class="fmap-group"><path class="fregion" d="M202.3 159.645l8.4 11v-5.8h2.6l1.3-3.2-1.4-4-5.8-3.9.6-3.2 3.9-3.2-1.3-5.8-1.3-14.8v-7.1h-11l-2.6 3.2-2.6 3.9h-1.8l-2.6-1.9-2.6 1.9-3.2 2.6 19.4 30.3z"/><path class="fregion-stroke" d="M210.6 170.545l-.4.3.9 1.2v-1.5h-.5zm-8.3-10.9l-.4.3.4-.3zm-19.4-30.3l-.3-.4-.4.3.2.4.5-.3zm3.2-2.6l-.3-.4.3.4zm2.6-1.9l.3-.4-.3-.3-.3.3.3.4zm2.6 1.9l-.3.4.1.1h.2v-.5zm1.9 0v.5h.3l.1-.2-.4-.3zm2.6-3.9l-.4-.3.4.3zm2.6-3.2v-.5h-.2l-.2.2.4.3zm10.9 0h.5v-.5h-.5v.5zm0 7.1h-.5.5zm1.3 14.8h-.5c0 .1.5 0 .5 0zm1.3 5.8l.3.4.2-.2-.1-.3c.1 0-.4.1-.4.1zm-3.8 3.3l-.3-.4-.1.1v.2l.4.1zm-.7 3.2l-.5-.1v.3l.3.2.2-.4zm5.8 3.8l.5-.2-.1-.2-.1-.1c0 .1-.3.5-.3.5zm1.3 3.9l.5.2.1-.2-.1-.2c0 .1-.5.2-.5.2zm-1.3 3.2v.5h.3l.1-.3-.4-.2zm-2.6 0v-.5h-.5v.5h.5zm.4 5.5l-8.4-11-.7.7 8.4 11c-.1-.1.7-.7.7-.7zm-8.3-10.9l-19.4-30.3-.8.5 19.4 30.3c-.1 0 .8-.5.8-.5zm-19.5-29.6l3.2-2.6-.6-.8-3.2 2.6.6.8zm3.2-2.6l2.6-1.9-.6-.8-2.6 1.9.6.8zm2-1.9l2.6 1.9.6-.8-2.6-1.9-.6.8zm2.9 2h1.9v-1h-1.9v1zm2.3-.2l2.6-3.9-.8-.6-2.6 3.9.8.6zm2.6-3.9l2.6-3.2-.8-.6-2.6 3.2.8.6zm2.2-3h11v-1h-11v1zm10.4-.5v7.1h1v-7.1h-1zm0 7.1l1.3 14.9 1-.1-1.3-14.9-1 .1zm1.3 14.9l1.3 5.8 1-.2-1.3-5.8-1 .2zm1.5 5.3l-3.9 3.2.6.8 3.9-3.2-.6-.8zm-4 3.6l-.7 3.2 1 .2.6-3.2-.9-.2zm-.5 3.7l5.8 3.9.6-.8-5.8-3.9-.6.8zm5.6 3.6l1.3 3.9.9-.3-1.3-3.9-.9.3zm1.3 3.5l-1.2 3.3.9.4 1.3-3.2-1-.5zm-.8 2.9h-2.6v1h2.6v-1zm-3.1.5v5.8h1v-5.8h-1z"/></g><g class="fmap-group"><path class="fregion" d="M168.1 200.257l1.3-8.4 3.2.6 3.9-5.8.6-4.5-2.6-1.9v-11l11-5.2 9.6-2.5 2.6 3.9 3.9 5.1 7.1 6.4 3.9 2.6-1.9 3.2-1.9 4.5 1.9 3.9 3.9 1.3 3.9-1.9.6 3.9 1.3 3.2 3.9.6-1.3 4.5-.6 5.2h-5.2l-1.9 1.3-.6 2.6-2.6 1.3-3.9.6-.8-3.2-3.9-3.2-2.6-2.6H197v8.4l-2.6 1.3-2.6 2.6-.1 2.5h-6.2l-5.2-1.3-.6 1.9-1.9 3.2h-3.2l-.6 2.6-2.6.6-3.9 3.2-5.8 5.2h-1.4l1.9-3.9-3.2-3.9v-4.5h-1.9l-1.3-2.4.6-5.2 5.2-5.8.6-3.2 3.9-3.2 2-2.6z"/><path class="fregion-stroke" d="M169.3 191.857l.1-.5-.5-.1-.1.5c.1 0 .5.1.5.1zm-1.2 8.4l.4.3.1-.1v-.1l-.5-.1zm-2 2.6l.3.4c.1-.1-.3-.4-.3-.4zm-3.9 3.2l-.3-.4-.1.1v.2l.4.1zm-.6 3.2l.4.3.1-.1v-.1l-.5-.1zm-5.2 5.8l-.4-.3-.1.1v.2h.5zm-.6 5.2l-.5-.1v.2l.1.1.4-.2zm1.3 2.6l-.4.2.1.3h.3v-.5zm1.9 0h.5v-.5h-.5v.5zm0 4.5h-.5v.2l.1.1.4-.3zm3.2 3.8l.4.2.2-.2-.2-.3-.4.3zm-1.9 3.9l-.4-.2-.4.7h.8v-.5zm1.3 0v.5h.2l.1-.1-.3-.4zm5.8-5.2l-.3-.3.3.3zm3.9-3.2l-.1-.5h-.1l-.1.1.3.4zm2.6-.6l.1.5.3-.1.1-.3-.5-.1zm.6-2.6v-.5h-.4l-.1.4.5.1zm3.2 0v.5h.3l.1-.2-.4-.3zm2-3.2l.4.3v-.1c0-.1-.4-.2-.4-.2zm.6-2l.1-.5-.4-.1-.2.5.5.1zm5.2 1.3l-.1.5h.2v-.5zm6.2 0v.5h.5v-.5h-.5zm.2-2.5l-.4-.4-.1.1v.2l.5.1zm2.6-2.6l-.2-.4h-.1l-.1.1.4.3zm2.6-1.3l.2.4.3-.1v-.3h-.5zm0-8.4v-.5h-.5v.5h.5zm3.8 0l.4-.4-.1-.1h-.2s0 .5-.1.5zm2.6 2.6l-.4.4.4-.4zm3.9 3.2l.5-.1v-.2l-.1-.1c-.1 0-.4.4-.4.4zm.6 3.2l-.5.1.1.5.5-.1-.1-.5zm3.9-.6l.1.5h.2c-.1-.1-.3-.5-.3-.5zm2.6-1.3l.2.4.2-.1.1-.2-.5-.1zm.6-2.6l-.3-.4-.2.1v.2c.1 0 .5.1.5.1zm2-1.3v-.5h-.2l-.1.1.3.4zm5.1 0v.5h.4l.1-.4-.5-.1zm.7-5.1l-.5-.1.5.1zm1.3-4.5l.5.1.2-.5-.6-.1-.1.5zm-3.9-.7l-.5.2.1.3h.3l.1-.5zm-1.3-3.2l-.5.1v.2l.5-.3zm-.6-3.9l.5-.1-.1-.7-.6.3c-.1.1.2.5.2.5zm-3.9 2l-.2.5.2.1.2-.1c0-.1-.2-.5-.2-.5zm-3.9-1.3l-.4.2.1.2.2.1.1-.5zm-1.9-3.9l-.5-.2-.1.2.1.2.5-.2zm1.9-4.5l-.4-.3c0 .1.4.3.4.3zm2-3.2l.4.3.2-.4-.4-.4-.2.5zm-3.9-2.6l-.3.4.3-.4zm-7.1-6.5l-.4.3.4-.3zm-3.9-5.1l-.4.3.4-.3zm-2.6-3.9l.4-.3-.2-.3-.3.1.1.5zm-9.6 2.6l-.1-.5.1.5zm-11 5.1l-.2-.5-.3.1v.3h.5zm0 11h-.5v.3l.2.1.3-.4zm2.6 1.9l.5.1v-.3l-.2-.2-.3.4zm-.7 4.5l.4.3.1-.1v-.1l-.5-.1zm-3.8 5.9l-.1.5.3.1.2-.3-.4-.3zm-3.7-.8l-1.3 8.4 1 .2 1.3-8.4c-.1 0-1-.2-1-.2zm-1.2 8.2l-2 2.6.8.6 1.9-2.6-.7-.6zm-1.9 2.5l-3.9 3.2.6.8 3.9-3.2-.6-.8zm-4 3.5l-.6 3.2 1 .2.6-3.2c-.1 0-1-.2-1-.2zm-.6 3l-5.2 5.8.8.7 5.2-5.9-.8-.6zm-5.3 6.1l-.6 5.2 1 .1.6-5.2-1-.1zm-.5 5.4l1.3 2.6.8-.5-1.3-2.6c0 .1-.8.5-.8.5zm1.7 2.9h1.9v-1h-1.9v1zm1.4-.5v4.5h1v-4.5h-1zm.1 4.8l3.3 3.9.8-.6-3.2-3.9c-.1 0-.9.6-.9.6zm3.2 3.3l-1.9 3.9.9.4 1.9-3.9-.9-.4zm-1.5 4.6h1.3v-1h-1.3v1zm1.6-.1l5.8-5.2-.6-.7-5.8 5.2.6.7zm5.8-5.2l3.9-3.2-.6-.8-3.9 3.3.6.7zm3.7-3.1l2.6-.6-.2-1-2.6.6.2 1zm2.9-1l.6-2.6-1-.2-.6 2.6 1 .2zm.2-2.2h3.2v-1h-3.2v1zm3.7-.2l1.9-3.2-.9-.5-1.9 3.2.9.5zm1.9-3.4l.6-1.9-.9-.3-.6 1.9.9.3zm.1-1.6l5.2 1.3.2-1-5.2-1.3c0 .1-.2 1-.2 1zm5.3 1.3h6.2v-1h-6.2v1zm6.7-.4l.2-2.6-1-.1-.2 2.6 1 .1zm.1-2.3l2.6-2.6-.7-.7-2.6 2.6.7.7zm2.4-2.5l2.6-1.3-.4-.9-2.6 1.3.4.9zm2.9-1.7v-4.5h-1v4.5h1zm0-4.5v-3.9h-1v3.9h1zm-.5-3.4h3.9v-1h-3.9v1zm3.5-.1l2.6 2.6.7-.7-2.6-2.6-.7.7zm2.6 2.6l3.9 3.2.6-.8-3.9-3.2-.6.8zm3.7 2.9l.6 3.2 1-.2-.6-3.2-1 .2zm1.2 3.6l3.9-.6-.2-1-3.9.6c.1 0 .2 1 .2 1zm4-.7l2.6-1.3-.4-.9-2.6 1.3.4.9zm2.9-1.6l.6-2.6-1-.2-.6 2.6 1 .2zm.4-2.3l1.9-1.3-.5-.8-1.9 1.3.5.8zm1.7-1.2h5.2v-1h-5.2v1zm5.6-.4l.6-5.2-1-.1-.6 5.2 1 .1zm.7-5.1l1.3-4.5-1-.3-1.3 4.5 1 .3zm.9-5.1l-3.9-.6-.2 1 3.9.6.2-1zm-3.5-.4l-1.3-3.2-.9.4 1.3 3.2.9-.4zm-1.3-3.1l-.6-3.9-1 .2.6 3.9 1-.2zm-1.4-4.2l-3.9 1.9.4.9 3.9-1.9c.1 0-.4-.9-.4-.9zm-3.4 1.9l-3.9-1.3-.3.9 3.9 1.3.3-.9zm-3.6-1.1l-1.9-3.9-1 .5 1.9 3.9c.1 0 1-.5 1-.5zm-2-3.4l1.9-4.5-.9-.4-1.9 4.5.9.4zm2-4.5l1.9-3.2-.9-.5-1.9 3.2.9.5zm1.7-3.9l-3.9-2.6-.6.8 3.9 2.6.6-.8zm-3.8-2.5l-7.1-6.4-.7.7 7.1 6.4.7-.7zm-7-6.4l-3.9-5.2-.8.6 3.9 5.2.8-.6zm-3.9-5.1l-2.6-3.9-.8.6 2.6 3.9c0-.1.8-.6.8-.6zm-3.1-4.1l-9.7 2.6.3 1 9.7-2.6-.3-1zm-9.7 2.6l-11 5.2.4.9 11-5.2-.4-.9zm-11.3 5.6v11h1v-11h-1zm.2 11.4l2.6 1.9.6-.8-2.6-1.9-.6.8zm2.4 1.5l-.6 4.5 1 .1.6-4.5-1-.1zm-.6 4.3l-3.9 5.8.8.6 3.9-5.8c.1-.1-.8-.6-.8-.6zm-3.3 5.6l-3.2-.6-.2 1 3.2.6c0-.1.2-1 .2-1z"/></g><g class="fmap-group"><path class="fregion" d="M174.5 223.46l-.6 2.6 1.9.6 3.2.6 4.5 2.6 5.8 2.6 2.6-2.6 3.2-3.9h1.9l2.6 1.9 3.2 7.1 1.9 1.9 1.3-3.2 1.3-1.3 2.6-.6v-9l-1.3-1.3-1.9 1.9v-1.9l.6-2.6-.6-.6-.6-1.3 2-3.2-.6-3.2-6.5-5.8h-3.9v8.4l-2.6 1.3-2.6 2.6v2.6h-6.4l-5.2-1.3-.6 1.9-1.9 3.2h-3.3z"/><path class="fregion-stroke" d="M173.9 226.06l-.5-.1-.1.4.4.1.2-.4zm.6-2.6v-.5h-.3l-.1.4.4.1zm3.3 0v.5h.3l.1-.2-.4-.3zm1.9-3.2l.4.3v-.1c.1-.1-.4-.2-.4-.2zm.6-2l.1-.5-.4-.1-.1.5.4.1zm5.2 1.3l-.1.5h.2v-.5zm6.5 0v.5h.5v-.5h-.5zm0-2.5l-.4-.4-.1.1v.2c0 .1.5.1.5.1zm2.5-2.6l-.2-.4h-.1l-.1.1c.1-.1.4.3.4.3zm2.6-1.3l.2.4.3-.1v-.3h-.5zm0-8.4v-.5h-.5v.5h.5zm3.9 0l.3-.4-.1-.1h-.2v.5zm6.4 5.8l.5-.1v-.2l-.1-.1-.4.4zm.7 3.2l.4.3.1-.2v-.2l-.5.1zm-1.9 3.3l-.5-.3-.1.2.1.2c0 .1.5-.1.5-.1zm.6 1.2l-.4.2v.1l.1.1c-.1 0 .3-.4.3-.4zm.6.7l.5.1.1-.3-.2-.2-.4.4zm-.6 2.6l-.5-.1v.2h.5zm0 1.9h-.5v1.2l.9-.9-.4-.3zm1.9-1.9l.4-.4-.4-.4-.4.4.4.4zm1.3 1.3h.5v-.2l-.1-.1-.4.3zm0 9l.1.5.4-.1v-.4h-.5zm-2.6.6l-.1-.5h-.1l-.1.1.3.4zm-1.2 1.3l-.4-.4-.1.1v.1l.5.2zm-1.3 3.2l-.4.4.5.5.3-.7-.4-.2zm-2-1.9l-.5.2v.1l.1.1c.1 0 .4-.4.4-.4zm-3.2-7.1l.5-.2-.1-.1-.1-.1-.3.4zm-2.6-1.9l.3-.4-.1-.1h-.2v.5zm-1.9 0v-.5h-.2l-.2.2.4.3zm-3.2 3.8l.4.4c-.1 0-.4-.4-.4-.4zm-2.6 2.6l-.2.5.3.1.2-.2-.3-.4zm-5.8-2.6l-.2.4.2-.4zm-4.5-2.5l.2-.4h-.2c.1-.1 0 .4 0 .4zm-3.3-.7l-.2.5.2-.5zm-1.4-.5l.6-2.6-1-.2-.6 2.6 1 .2zm.1-2.2h3.2v-1h-3.2v1zm3.7-.2l1.9-3.2-.9-.5-1.9 3.2c0-.1.9.5.9.5zm2-3.4l.6-1.9-.9-.3-.6 1.9.9.3zm0-1.6l5.2 1.3.2-1-5.2-1.3c.1.1-.2 1-.2 1zm5.3 1.3h6.4v-1h-6.4v1zm7-.5v-2.6h-1v2.6h1zm-.2-2.2l2.6-2.6-.7-.7-2.6 2.6.7.7zm2.5-2.5l2.6-1.3-.5-.9-2.6 1.3.5.9zm2.8-1.7v-8.4h-1v8.4h1zm-.5-7.9h3.9v-1h-3.9v1zm3.6-.1l6.5 5.8.7-.7-6.5-5.8-.7.7zm6.2 5.5l.6 3.2 1-.2-.6-3.2-1 .2zm.8 2.9l-2 3.2.9.5 1.9-3.2-.8-.5zm-2 3.7l.6 1.3.9-.4-.6-1.4-.9.5zm.7 1.4l.6.6.7-.7-.6-.6-.7.7zm.6.2l-.6 2.6 1 .2.6-2.6c-.1 0-1-.2-1-.2zm-.7 2.7v1.9h1v-1.9h-1zm.8 2.3l1.9-1.9-.7-.7-1.9 1.9c0-.1.7.7.7.7zm1.3-2l1.3 1.3.7-.7-1.3-1.3-.7.7zm1.1 1v9h1v-9h-1zm.4 8.5l-2.6.6.2 1 2.6-.6-.2-1zm-2.8.8l-1.3 1.3.7.7 1.3-1.3-.7-.7zm-1.4 1.4l-1.3 3.2.9.4 1.3-3.2-.9-.4zm-.5 3.1l-1.9-1.9-.7.7 1.9 1.9.7-.7zm-1.8-1.8l-3.2-7.1-.9.4 3.2 7.1.9-.4zm-3.4-7.3l-2.6-1.9-.6.8 2.6 1.9.6-.8zm-2.9-2h-1.9v1h1.9v-1zm-2.3.2l-3.2 3.9.8.6 3.2-3.9-.8-.6zm-3.2 3.8l-2.6 2.6.7.7 2.6-2.6-.7-.7zm-2 2.5l-5.8-2.6-.4.9 5.8 2.6.4-.9zm-5.8-2.6l-4.5-2.6-.5.9 4.5 2.6.5-.9zm-4.6-2.6l-3.3-.7-.2 1 3.2.6.3-.9zm-3.2-.7l-1.9-.6-.3.9 1.9.6.3-.9z"/></g></symbol><symbol viewBox="0 0 9 12" id="pause"><path d="M1.6 0C.7 0 0 .7 0 1.6v8.8c0 .9.7 1.6 1.6 1.6.9 0 1.6-.7 1.6-1.6V1.6C3.3.7 2.5 0 1.6 0zm5.8 0c-.9 0-1.7.7-1.7 1.6v8.8c0 .9.7 1.6 1.6 1.6S9 11.3 9 10.4V1.6C9 .7 8.3 0 7.4 0z"/></symbol><symbol viewBox="0 0 16 16" id="phone"><path d="M9.2 9.2c-1.6 1.6-3.4 3.1-4.1 2.4-1-1-1.7-1.9-4-.1-2.3 1.8-.5 3.1.5 4.1 1.2 1.2 5.5.1 9.8-4.2 4.3-4.3 5.4-8.6 4.2-9.8-1-1-2.2-2.8-4.1-.5-1.8 2.3-.9 2.9.1 4 .7.7-.8 2.5-2.4 4.1z"/></symbol><symbol viewBox="0 0 42 58" id="placemark"><path d="M0 23C0 10 9 0 21 0s21 10 21 23c0 6-6 15-12 20-4 4-8 11-9 15-1-4-5-10-9-15C6 38 0 29 0 23z"/><path d="M33 22c0 7-6 12-12 12s-11-5-11-12 5-12 11-12 12 5 12 12z" fill="currentColor"/></symbol></svg>